<svg xmlns="http://www.w3.org/2000/svg" width="93" height="93"><defs><clipPath id="a"><path fill="#fff" d="M0 0h50.185v50.185H0Z"/></clipPath></defs><g data-name="Сгруппировать 7147" transform="translate(-130 -1469)"><circle cx="46.5" cy="46.5" r="46.5" fill="#ff8100" data-name="Ellipse 6" transform="translate(130 1469)"/><g clip-path="url(#a)" transform="translate(151.08 1490.08)"><path fill="#fff" d="M16.27 50.378a.928.928 0 0 1-.928-.928v-5.137a.928.928 0 0 1 .928-.928.928.928 0 0 1 .928.928v5.137a.928.928 0 0 1-.928.928ZM33.913 50.378a.928.928 0 0 1-.928-.928v-5.137a.928.928 0 0 1 .928-.928.928.928 0 0 1 .928.928v5.137a.928.928 0 0 1-.928.928ZM21.084 42.476a.928.928 0 0 1-.128-.009.928.928 0 0 1-.63-.384l-3.5-4.957a.928.928 0 0 1 .122-1.211l1.264-1.189a1.8 1.8 0 0 1 1.25-.566 1.907 1.907 0 0 1 .99.3l5.114 3.05a.928.928 0 0 1 .45.731.928.928 0 0 1-.339.789l-4.01 3.24a.928.928 0 0 1-.583.206Zm-2.278-5.761 2.465 3.49 2.2-1.778-3.969-2.367-.023.021Z"/><path fill="#fff" d="M26.369 43.731h-2.436a1.427 1.427 0 0 1-1.309-.777v-.006l-1.067-2.012a.928.928 0 0 1 .386-1.253.928.928 0 0 1 1.254.386l.952 1.806h1.871l.967-1.81a.928.928 0 0 1 1.256-.381.928.928 0 0 1 .381 1.256l-.992 1.856-.036.069a1.377 1.377 0 0 1-1.227.866Z"/><path fill="#fff" d="M21.777 50.376a.927.927 0 0 1-.286-.046.928.928 0 0 1-.6-1.169l2.156-6.646a.928.928 0 0 1 1.169-.6.928.928 0 0 1 .6 1.169l-2.157 6.652a.928.928 0 0 1-.882.64ZM28.408 50.376a.928.928 0 0 1-.886-.64l-2.155-6.646a.928.928 0 0 1 .6-1.169.928.928 0 0 1 1.169.6l2.155 6.642a.928.928 0 0 1-.883 1.213ZM29.097 42.476a.928.928 0 0 1-.583-.206l-4.006-3.24a.928.928 0 0 1-.342-.787.928.928 0 0 1 .45-.731l5.115-3.051a1.916 1.916 0 0 1 .99-.3 1.8 1.8 0 0 1 1.246.563l1.269 1.191a.928.928 0 0 1 .127 1.215l-3.5 4.957a.928.928 0 0 1-.63.383.928.928 0 0 1-.136.006Zm-2.388-4.05 2.2 1.779 2.467-3.49-.678-.637-.021-.019Z"/><path fill="#fff" d="M39.03 50.377H11.152a1.375 1.375 0 0 1-1.372-1.375v-5.239a8.927 8.927 0 0 1 .969-4.2 5.878 5.878 0 0 1 3.5-2.909l3.065-.945a.928.928 0 0 1 1.16.613.928.928 0 0 1-.613 1.16l-3.065.945c-2.85.879-3.158 4.031-3.158 5.346v4.754H38.55v-4.764c0-1.315-.308-4.467-3.157-5.345l-3.062-.945a.928.928 0 0 1-.613-1.16.928.928 0 0 1 1.16-.613l3.062.945c2.8.862 4.466 3.523 4.466 7.118v5.235a1.375 1.375 0 0 1-1.376 1.379ZM23.971 15.606h2.242a1.6 1.6 0 0 1 1.6 1.6v.091a8.148 8.148 0 0 1 .805.334l.064-.064a1.591 1.591 0 0 1 1.133-.468 1.59 1.59 0 0 1 1.132.468l1.592 1.592a1.586 1.586 0 0 1 .47 1.132 1.586 1.586 0 0 1-.471 1.134l-.062.062a8.047 8.047 0 0 1 .334.806h.09a1.6 1.6 0 0 1 1.6 1.6v2.254a1.6 1.6 0 0 1-1.6 1.6h-.091a8.088 8.088 0 0 1-.334.806l.062.062a1.585 1.585 0 0 1 .471 1.129 1.592 1.592 0 0 1-.47 1.138l-1.592 1.592a1.59 1.59 0 0 1-1.132.468 1.591 1.591 0 0 1-1.132-.467l-.064-.064a8.146 8.146 0 0 1-.805.334v.088a1.6 1.6 0 0 1-1.6 1.6h-2.242a1.6 1.6 0 0 1-1.6-1.6v-.087a8.168 8.168 0 0 1-.805-.334l-.064.064a1.589 1.589 0 0 1-1.132.468 1.6 1.6 0 0 1-1.13-.464l-1.592-1.592a1.607 1.607 0 0 1 0-2.261l.064-.064a8.186 8.186 0 0 1-.334-.805h-.088a1.6 1.6 0 0 1-1.6-1.6v-2.261a1.6 1.6 0 0 1 1.6-1.6h.088a8.15 8.15 0 0 1 .334-.805l-.064-.064a1.6 1.6 0 0 1 0-2.265l1.587-1.596a1.6 1.6 0 0 1 1.13-.464 1.589 1.589 0 0 1 1.131.467l.064.065a8.175 8.175 0 0 1 .805-.334v-.095a1.6 1.6 0 0 1 1.606-1.6Zm1.987 1.855h-1.734v.523a.928.928 0 0 1-.7.9 6.322 6.322 0 0 0-1.66.688.928.928 0 0 1-1.129-.142l-.371-.371-1.229 1.233.371.371a.928.928 0 0 1 .142 1.129 6.3 6.3 0 0 0-.688 1.659.928.928 0 0 1-.9.7h-.523v1.744h.523a.928.928 0 0 1 .9.7 6.325 6.325 0 0 0 .688 1.66.928.928 0 0 1-.142 1.129l-.371.371 1.233 1.233.371-.371a.928.928 0 0 1 1.129-.142 6.32 6.32 0 0 0 1.66.688.928.928 0 0 1 .7.9v.523h1.734v-.523a.928.928 0 0 1 .7-.9 6.293 6.293 0 0 0 1.659-.688.928.928 0 0 1 1.129.142l.371.371 1.233-1.233-.371-.371a.928.928 0 0 1-.141-1.132 6.235 6.235 0 0 0 .687-1.657.928.928 0 0 1 .9-.7h.523v-1.746h-.523a.928.928 0 0 1-.9-.7 6.208 6.208 0 0 0-.686-1.656.928.928 0 0 1 .14-1.132l.371-.371-1.233-1.233-.371.371a.928.928 0 0 1-1.129.142 6.3 6.3 0 0 0-1.659-.688.928.928 0 0 1-.7-.9Z"/><path fill="#fff" d="M25.097 30.066a5.058 5.058 0 0 1-5.051-5.054 5.057 5.057 0 0 1 5.051-5.051 5.058 5.058 0 0 1 5.054 5.051 5.059 5.059 0 0 1-5.054 5.054Zm0-8.249a3.2 3.2 0 0 0-3.2 3.2 3.2 3.2 0 0 0 3.2 3.2 3.2 3.2 0 0 0 3.2-3.2 3.2 3.2 0 0 0-3.2-3.2ZM23.396 13.735H.736a.928.928 0 0 1-.928-.928.928.928 0 0 1 .927-.927h22.66a.928.928 0 0 1 .928.928.928.928 0 0 1-.927.927ZM36.194 9.609a2.842 2.842 0 0 1-2.837-2.84 2.841 2.841 0 0 1 2.839-2.836 2.84 2.84 0 0 1 2.836 2.836 2.841 2.841 0 0 1-2.838 2.84Zm0-3.82a.984.984 0 0 0-.984.981.985.985 0 0 0 .984.984.984.984 0 0 0 .981-.984.982.982 0 0 0-.981-.982ZM28.74 9.609a2.842 2.842 0 0 1-2.837-2.84 2.841 2.841 0 0 1 2.839-2.836 2.84 2.84 0 0 1 2.836 2.836 2.841 2.841 0 0 1-2.838 2.84Zm0-3.82a.984.984 0 0 0-.984.981.985.985 0 0 0 .984.984.984.984 0 0 0 .981-.984.982.982 0 0 0-.981-.982ZM6.538 3.933h12.736a2.841 2.841 0 0 1 2.839 2.836 2.842 2.842 0 0 1-2.839 2.839H6.538a2.842 2.842 0 0 1-2.837-2.839 2.841 2.841 0 0 1 2.837-2.836Zm12.736 3.82a.985.985 0 0 0 .984-.984.984.984 0 0 0-.984-.981H6.538a.984.984 0 0 0-.984.981.985.985 0 0 0 .984.984Z"/><path fill="#fff" d="M47.462 42.252h-8.313a.928.928 0 0 1-.928-.928.928.928 0 0 1 .928-.928h8.313a1.059 1.059 0 0 0 1.059-1.056V2.717a1.059 1.059 0 0 0-1.059-1.056H2.719a1.057 1.057 0 0 0-1.056 1.056v21.114a.928.928 0 0 1-.928.928.928.928 0 0 1-.927-.927V2.718A2.915 2.915 0 0 1 2.719-.193h44.743a2.916 2.916 0 0 1 2.914 2.911v36.623a2.916 2.916 0 0 1-2.914 2.911Zm-36.43 0H2.719a2.915 2.915 0 0 1-2.911-2.911.928.928 0 0 1 .337-.715.927.927 0 0 1 .766-.2l10.3 1.984a.928.928 0 0 1 .748 1 .928.928 0 0 1-.927.842Z"/><path fill="#fff" d="M43.649 9.609a2.842 2.842 0 0 1-2.837-2.84 2.841 2.841 0 0 1 2.839-2.836 2.84 2.84 0 0 1 2.836 2.836 2.841 2.841 0 0 1-2.838 2.84Zm0-3.82a.984.984 0 0 0-.984.981.985.985 0 0 0 .984.984.984.984 0 0 0 .981-.984.982.982 0 0 0-.981-.982Z"/></g></g></svg>