<svg xmlns="http://www.w3.org/2000/svg" width="57" height="57"><g data-name="Сгруппировать 7153" transform="translate(-517.5 -2718)"><rect width="57" height="57" fill="#2589fe" data-name="Rectangle 61" opacity=".2" rx="10" transform="translate(517.5 2718)"/><path fill="#2589fe" d="M546 2759a12.5 12.5 0 0 1-8.839-21.339 12.5 12.5 0 1 1 17.678 17.678A12.418 12.418 0 0 1 546 2759Zm0-22.5a10 10 0 1 0 10 10 10.011 10.011 0 0 0-10-10Zm.625 17.5h-1.25a.625.625 0 0 1-.625-.625v-1.875h-3.125a.626.626 0 0 1-.625-.625v-.938a.626.626 0 0 1 .625-.625h.312a.313.313 0 0 0 .312-.313v-5a.313.313 0 0 0-.312-.312h-.312a.626.626 0 0 1-.625-.625v-.937a.626.626 0 0 1 .625-.625h3.125v-1.875a.626.626 0 0 1 .625-.625h1.25a.626.626 0 0 1 .625.625v1.875h.625a2.5 2.5 0 0 1 2.5 2.5v1.1a2.5 2.5 0 0 1-.2.963 2.5 2.5 0 0 1 .825 1.837v1.1a2.5 2.5 0 0 1-2.5 2.5h-1.25v1.876a.626.626 0 0 1-.625.624Zm-2.187-6.4v1.713h4.375v-1.713Zm0-3.912v1.712h3.749v-1.712Z" data-name="Icon color"/></g></svg>