<svg xmlns="http://www.w3.org/2000/svg" width="57" height="57"><g data-name="Сгруппировать 7155" transform="translate(-1117.5 -2718)"><rect width="57" height="57" fill="#e23f5a" data-name="Rectangle 61" opacity=".2" rx="10" transform="translate(1117.5 2718)"/><path fill="#e23f5a" d="M1159.125 2759h-26.25a.626.626 0 0 1-.625-.625v-1.25a.625.625 0 0 1 .625-.625h1.875v-9.112a.624.624 0 0 1 .275-.526l5.913-3.9a1.245 1.245 0 0 1 .688-.212.625.625 0 0 1 .625.625v2.838l4.937-3.25a1.245 1.245 0 0 1 .688-.212.625.625 0 0 1 .625.625v2.838l1.6-.962.312-10a1.252 1.252 0 0 1 1.25-1.25h3.712a1.252 1.252 0 0 1 1.25 1.25l.625 21.248h1.875a.625.625 0 0 1 .625.625v1.25a.626.626 0 0 1-.625.625Zm-7.5-5a.626.626 0 0 0-.625.625v1.25a.626.626 0 0 0 .625.625h1.25a.626.626 0 0 0 .625-.625v-1.25a.625.625 0 0 0-.625-.625Zm-6.25 0a.625.625 0 0 0-.625.625v1.25a.626.626 0 0 0 .625.625h1.25a.626.626 0 0 0 .626-.625v-1.25a.626.626 0 0 0-.626-.625Zm-6.25 0a.626.626 0 0 0-.626.625v1.25a.626.626 0 0 0 .626.625h1.25a.626.626 0 0 0 .625-.625v-1.25a.625.625 0 0 0-.625-.625Zm12.5-5a.626.626 0 0 0-.625.626v1.25a.626.626 0 0 0 .625.625h1.25a.625.625 0 0 0 .625-.625v-1.25a.626.626 0 0 0-.625-.626Zm-6.25 0a.626.626 0 0 0-.625.626v1.25a.625.625 0 0 0 .625.625h1.25a.626.626 0 0 0 .626-.625v-1.25a.626.626 0 0 0-.626-.626Zm-6.25 0a.626.626 0 0 0-.626.626v1.25a.626.626 0 0 0 .626.624h1.25a.625.625 0 0 0 .625-.625v-1.25a.626.626 0 0 0-.625-.626Z" data-name="Icon color"/></g></svg>