<svg xmlns="http://www.w3.org/2000/svg" width="57" height="57"><g data-name="Сгруппировать 7154" transform="translate(-817.5 -2718)"><rect width="57" height="57" fill="#1db954" data-name="Rectangle 65" opacity=".2" rx="10" transform="translate(817.5 2718)"/><path fill="#1db954" d="M836.256 2757.748a.621.621 0 0 1-.444-.185l-.875-.875a.626.626 0 0 1 0-.887l5.326-5.301a8.751 8.751 0 0 1 .812-11.5c3.075-3.1 7.978-3.75 11.55-3.75h.053c.92 0 1.852.046 2.772.137a1.259 1.259 0 0 1 .762.35l.537.55a1.255 1.255 0 0 1 .363.763c.286 2.958.507 10.281-3.613 14.375a8.75 8.75 0 0 1-11.462.813l-5.337 5.324a.626.626 0 0 1-.444.186ZM846.994 2744a.624.624 0 0 1 .444.184l.875.875a.625.625 0 0 1 0 .888l-4.5 4.5a6.251 6.251 0 0 0 7.938-.8c3.164-3.139 3.1-9.315 2.925-11.825a18.576 18.576 0 0 0-2.05-.076c-2.535 0-7.177.39-9.775 3a6.253 6.253 0 0 0-.8 7.937l4.5-4.5a.629.629 0 0 1 .443-.183Z" data-name="Icon color"/></g></svg>