<svg xmlns="http://www.w3.org/2000/svg" width="57" height="57"><g data-name="Сгруппировать 7152" transform="translate(-817.5 -2408)"><rect width="57" height="57" fill="#ff8100" data-name="Rectangle 61" opacity=".2" rx="10" transform="translate(817.5 2408)"/><path fill="#ff8100" d="M857.875 2447.75h-.938a.626.626 0 0 1-.625-.626V2436l-8.925 6.425a1.849 1.849 0 0 1-1.049.325h-.675a1.855 1.855 0 0 1-1.05-.325l-10.838-7.813a.609.609 0 0 1-.275-.512v-.2a.612.612 0 0 1 .274-.513l10.839-7.812a1.855 1.855 0 0 1 1.05-.325h.675a1.849 1.849 0 0 1 1.049.325l10.838 7.812a.615.615 0 0 1 .275.513v13.225a.626.626 0 0 1-.625.625Zm-11.963-20-8.662 6.25 8.626 6.25h.262l8.612-6.25-8.575-6.25h-.263Zm.088 20c-4.136 0-7.5-2.243-7.5-5v-2.038l4.825 3.488a4.151 4.151 0 0 0 2.338.738h.675a4.051 4.051 0 0 0 2.287-.713l4.875-3.513v2.038c0 2.757-3.364 5-7.5 5Z" data-name="Icon color"/></g></svg>