<svg xmlns="http://www.w3.org/2000/svg" width="92" height="92"><defs><clipPath id="a"><path fill="#fff" d="M0 0h49.231v49.231H0Z"/></clipPath></defs><g data-name="Сгруппировать 7149"><g data-name="Group 18" transform="translate(-139.5 -1705)"><circle cx="46" cy="46" r="46" fill="#81d97e" data-name="Ellipse 6" transform="translate(139.5 1705)"/></g><g clip-path="url(#a)" transform="translate(21.148 22.149)"><path fill="#fff" d="M14.56 7.498a.91.91 0 0 1-.91-.911v-5.29a.91.91 0 0 1 .91-.91.91.91 0 0 1 .91.91v5.29a.91.91 0 0 1-.91.911Z"/><path fill="#fff" d="M35.272 7.883H1.106a.91.91 0 0 1-.91-.91.91.91 0 0 1 .91-.91h34.166a.91.91 0 0 1 .91.91.91.91 0 0 1-.91.91ZM48.126 7.883h-9.294a.91.91 0 0 1-.91-.91.91.91 0 0 1 .91-.91h9.294a.91.91 0 0 1 .91.91.91.91 0 0 1-.91.91Z"/></g><path fill="#fff" d="M26.252 27.002h-.01a.91.91 0 0 1-.91-.91.91.91 0 0 1 .91-.91h.01a.91.91 0 0 1 .91.91.91.91 0 0 1-.91.91ZM28.762 27.002h-.01a.91.91 0 0 1-.91-.91.91.91 0 0 1 .91-.91h.01a.91.91 0 0 1 .91.91.91.91 0 0 1-.91.91ZM31.271 27.002h-.01a.91.91 0 0 1-.91-.91.91.91 0 0 1 .91-.91h.01a.91.91 0 0 1 .91.91.91.91 0 0 1-.91.91Z"/><g clip-path="url(#a)" transform="translate(21.148 22.149)"><path fill="#fff" d="M47.067 38.112h-6.092a.91.91 0 0 1-.91-.91.91.91 0 0 1 .91-.91h6.092a.533.533 0 0 0 .532-.532V2.36a.533.533 0 0 0-.532-.532h-44.9a.533.533 0 0 0-.532.532v33.4a.533.533 0 0 0 .532.532h4.184a.91.91 0 0 1 .91.91.91.91 0 0 1-.91.91H2.167A2.355 2.355 0 0 1-.185 35.76V2.36A2.355 2.355 0 0 1 2.167.008h44.9a2.355 2.355 0 0 1 2.352 2.352v33.4a2.355 2.355 0 0 1-2.352 2.352Z"/><path fill="#fff" d="M19.108 38.112h-9.2a.91.91 0 0 1-.91-.91.91.91 0 0 1 .91-.91h9.2a.91.91 0 0 1 .91.91.91.91 0 0 1-.91.91ZM43.595 49.228a.907.907 0 0 1-.643-.266l-1.615-1.614a.91.91 0 0 1 0-1.287.91.91 0 0 1 1.287 0l1.615 1.614a.91.91 0 0 1 0 1.287.907.907 0 0 1-.644.266ZM41.434 42.609a.907.907 0 0 1-.643-.267l-1.882-1.879a.91.91 0 0 1 0-1.287.91.91 0 0 1 1.287 0l1.881 1.881a.91.91 0 0 1-.643 1.552ZM39.205 44.838a.907.907 0 0 1-.643-.267l-1.881-1.881a.91.91 0 0 1 0-1.287.91.91 0 0 1 1.287 0l1.881 1.881a.91.91 0 0 1 0 1.287.907.907 0 0 1-.644.267ZM45.824 47a.907.907 0 0 1-.643-.267l-1.614-1.614a.91.91 0 0 1 0-1.287.91.91 0 0 1 1.287 0l1.614 1.614a.91.91 0 0 1 0 1.287.907.907 0 0 1-.644.267Z"/><path fill="#fff" d="M42.644 40.408a1.738 1.738 0 0 1 1.237.512l1.107 1.107a1.738 1.738 0 0 1 .512 1.237 1.738 1.738 0 0 1-.512 1.237l-3.051 3.051a1.738 1.738 0 0 1-1.237.512 1.738 1.738 0 0 1-1.237-.512l-1.103-1.107a1.752 1.752 0 0 1 0-2.474l3.051-3.051a1.738 1.738 0 0 1 1.233-.512Zm1.007 2.856-1.007-1.007-2.951 2.95 1.007 1.007ZM30.038 45.077a12.464 12.464 0 0 1-8.871-3.674 12.463 12.463 0 0 1-3.675-8.871 12.463 12.463 0 0 1 3.674-8.871 12.463 12.463 0 0 1 8.871-3.674 12.543 12.543 0 0 1 8.177 3.031 12.551 12.551 0 0 1 4.209 7.514.91.91 0 0 1-.754 1.043.91.91 0 0 1-1.043-.754 10.672 10.672 0 0 0-10.589-9.013 10.738 10.738 0 0 0-10.725 10.725 10.738 10.738 0 0 0 10.725 10.725 10.778 10.778 0 0 0 10.61-9.154.91.91 0 0 1 1.033-.768.91.91 0 0 1 .768 1.033 12.542 12.542 0 0 1-4.174 7.627 12.537 12.537 0 0 1-8.236 3.081Z"/><path fill="#fff" d="M29.967 23.415a9.127 9.127 0 0 1 9.117 9.117 9.127 9.127 0 0 1-9.117 9.117 9.127 9.127 0 0 1-9.117-9.117 9.057 9.057 0 0 1 2.67-6.447 9.057 9.057 0 0 1 6.447-2.67Zm0 16.414a7.305 7.305 0 0 0 7.3-7.3 7.305 7.305 0 0 0-7.3-7.3 7.249 7.249 0 0 0-5.16 2.137 7.249 7.249 0 0 0-2.137 5.16 7.3 7.3 0 0 0 7.297 7.303ZM7.01 19.484a3.094 3.094 0 0 1-3.091-3.091v-.623a.91.91 0 0 1 .91-.91.91.91 0 0 1 .91.91v.618a1.272 1.272 0 0 0 1.271 1.271 1.272 1.272 0 0 0 1.271-1.271V12.09h-2.28a.91.91 0 0 1-.91-.91.91.91 0 0 1 .91-.91h3.19a.91.91 0 0 1 .91.91v5.213a3.094 3.094 0 0 1-3.091 3.091ZM14.005 19.484a3.094 3.094 0 0 1-3.09-3.09v-3.032a3.094 3.094 0 0 1 3.091-3.091 3.094 3.094 0 0 1 3.091 3.091v3.032a3.094 3.094 0 0 1-3.092 3.09Zm0-7.394a1.272 1.272 0 0 0-1.271 1.271v3.033a1.272 1.272 0 0 0 1.271 1.271 1.272 1.272 0 0 0 1.271-1.271v-3.032a1.272 1.272 0 0 0-1.271-1.268ZM21.005 15.518a.91.91 0 0 1-.91-.91.91.91 0 0 1 .91-.91.8.8 0 0 0 .8-.8.8.8 0 0 0-.8-.8h-1.199v2.229a.91.91 0 0 1-.91.91.91.91 0 0 1-.91-.91v-3.139a.91.91 0 0 1 .91-.91h2.109a2.627 2.627 0 0 1 2.624 2.619 2.627 2.627 0 0 1-2.624 2.621Z"/><path fill="#fff" d="M21.543 19.483h-2.644a.91.91 0 0 1-.91-.91v-3.966a.91.91 0 0 1 .91-.913h2.648a2.627 2.627 0 0 1 2.624 2.624v.539a2.627 2.627 0 0 1-2.628 2.626Zm-1.738-1.82h1.738a.8.8 0 0 0 .8-.8v-.539a.8.8 0 0 0-.8-.8h-1.738ZM41.786 10.268a2.225 2.225 0 0 1 1.583.656 2.242 2.242 0 0 1 0 3.167 2.225 2.225 0 0 1-1.583.656 2.225 2.225 0 0 1-1.583-.656 2.242 2.242 0 0 1 0-3.167 2.225 2.225 0 0 1 1.583-.656Zm0 2.658a.417.417 0 0 0 .3-.123.42.42 0 0 0 0-.593.417.417 0 0 0-.3-.123.418.418 0 0 0-.3.123.42.42 0 0 0 0 .593.417.417 0 0 0 .3.125Z"/><path fill="#fff" d="M43.993 15.626a.907.907 0 0 1-.648-.267l-1.033-1.037a.91.91 0 0 1 0-1.287.91.91 0 0 1 1.287 0l1.037 1.033a.91.91 0 0 1-.643 1.558ZM44.402 18.062H27.914a.91.91 0 0 1-.91-.91.91.91 0 0 1 .91-.91h16.488a.91.91 0 0 1 .91.91.91.91 0 0 1-.91.91ZM13.08 27.144H5.964a.91.91 0 0 1-.91-.91.91.91 0 0 1 .91-.91h7.116a.91.91 0 0 1 .91.91.91.91 0 0 1-.91.91ZM18.608 29.951H5.964a.91.91 0 0 1-.91-.91.91.91 0 0 1 .91-.91h12.644a.91.91 0 0 1 .91.91.91.91 0 0 1-.91.91ZM18.113 32.757H5.964a.91.91 0 0 1-.91-.91.91.91 0 0 1 .91-.91h12.149a.91.91 0 0 1 .91.91.91.91 0 0 1-.91.91ZM44.407 21.238h-.01a.91.91 0 0 1-.91-.91.91.91 0 0 1 .91-.91h.01a.91.91 0 0 1 .91.91.91.91 0 0 1-.91.91ZM27.994 30.997h-5.472a.91.91 0 0 1-.91-.91.91.91 0 0 1 .91-.91h5.472a.91.91 0 0 1 .91.91.91.91 0 0 1-.91.91ZM28.19 34.424h-5.984a.91.91 0 0 1-.91-.91.91.91 0 0 1 .91-.91h5.984a.91.91 0 0 1 .91.91.91.91 0 0 1-.91.91Z"/></g></g></svg>