<svg xmlns="http://www.w3.org/2000/svg" width="17.25" height="15.75" viewBox="0 0 17.25 15.75">
  <path id="Icon_material-add-a-photo" data-name="Icon material-add-a-photo" d="M2.25,3.75V1.5h1.5V3.75H6v1.5H3.75V7.5H2.25V5.25H0V3.75ZM4.5,8.25V6H6.75V3.75H12l1.372,1.5H15.75a1.5,1.5,0,0,1,1.5,1.5v9a1.5,1.5,0,0,1-1.5,1.5h-12a1.5,1.5,0,0,1-1.5-1.5V8.25ZM9.75,15A3.75,3.75,0,1,0,6,11.25,3.751,3.751,0,0,0,9.75,15Zm-2.4-3.75a2.4,2.4,0,1,0,2.4-2.4A2.4,2.4,0,0,0,7.35,11.25Z" transform="translate(0 -1.5)" fill="#fff"/>
</svg>
