<svg xmlns="http://www.w3.org/2000/svg" width="96" height="96"><defs><clipPath id="a"><rect width="69.346" height="69.346" fill="none" stroke="rgba(0,0,0,0)" data-name="Прямоугольник 3" rx="5"/></clipPath></defs><g data-name="Сгруппировать 7150"><g data-name="Group 19" transform="translate(-139.5 -1970)"><circle cx="48" cy="48" r="48" fill="#79d8c8" data-name="Ellipse 7" transform="translate(139.5 1970)"/></g><g data-name="Сгруппировать 7065"><g clip-path="url(#a)" data-name="Сгруппировать 7064" transform="translate(13.327 11.074)"><path fill="#fff" d="M34.673 58.333A15.373 15.373 0 0 1 28.689 28.8a.984.984 0 1 1 .766 1.812 13.4 13.4 0 1 0 10.215-.09.984.984 0 0 1 .734-1.825 15.373 15.373 0 0 1-5.732 29.637Z"/><path fill="#fff" d="M34.673 49.683a.984.984 0 0 1-.984-.984V37.581a.984.984 0 1 1 1.967 0V48.7a.984.984 0 0 1-.983.983Z"/><path fill="#fff" d="M34.673 53.218a10.26 10.26 0 0 1-8.865-15.427.984.984 0 0 1 1.7.993 8.293 8.293 0 1 0 14.332 0 .984.984 0 0 1 1.7-.993 10.26 10.26 0 0 1-8.864 15.427Z"/><path fill="#fff" d="M38.383 69.31H30.96a.984.984 0 0 1-.971-.823l-1.077-6.507a19.781 19.781 0 0 1-3.625-1.5l-5.364 3.841a.984.984 0 0 1-1.268-.1l-5.246-5.246a.984.984 0 0 1-.1-1.268l3.841-5.364a19.769 19.769 0 0 1-1.5-3.625l-6.507-1.077a.984.984 0 0 1-.823-.97v-7.42a.984.984 0 0 1 .823-.971l6.507-1.077a19.768 19.768 0 0 1 1.5-3.625l-3.842-5.368a.984.984 0 0 1 .1-1.268l5.246-5.246a.984.984 0 0 1 1.268-.1l5.364 3.841c.309-.165.627-.325.949-.475a.984.984 0 1 1 .835 1.782c-.468.219-.924.457-1.357.708a.984.984 0 0 1-1.066-.051l-5.187-3.724-4.067 4.067 3.718 5.193a.984.984 0 0 1 .052 1.065 17.8 17.8 0 0 0-1.791 4.321.984.984 0 0 1-.79.717l-6.3 1.042v5.751l6.3 1.042a.984.984 0 0 1 .79.717 17.8 17.8 0 0 0 1.788 4.318.984.984 0 0 1-.052 1.065l-3.718 5.192 4.067 4.067 5.193-3.718a.984.984 0 0 1 1.065-.052 17.81 17.81 0 0 0 4.321 1.791.984.984 0 0 1 .717.79l1.042 6.3h5.751l1.042-6.3a.984.984 0 0 1 .716-.79 17.813 17.813 0 0 0 4.321-1.791.984.984 0 0 1 1.065.052l5.192 3.718 4.067-4.067-3.718-5.192a.984.984 0 0 1-.052-1.065 17.8 17.8 0 0 0 1.791-4.32.984.984 0 0 1 .79-.717l6.3-1.042V40.08l-6.3-1.042a.984.984 0 0 1-.79-.717A17.8 17.8 0 0 0 50.179 34a.984.984 0 0 1 .052-1.065l3.718-5.193-4.067-4.067-5.192 3.718a.984.984 0 0 1-1.066.052c-.434-.251-.89-.489-1.357-.708a.984.984 0 1 1 .834-1.782c.321.15.639.31.949.475l5.364-3.841a.984.984 0 0 1 1.268.1l5.247 5.246a.984.984 0 0 1 .1 1.268l-3.841 5.364a19.776 19.776 0 0 1 1.5 3.625l6.507 1.077a.984.984 0 0 1 .823.971v7.42a.984.984 0 0 1-.823.97l-6.496 1.08a19.77 19.77 0 0 1-1.5 3.625l3.841 5.364a.984.984 0 0 1-.1 1.268l-5.247 5.246a.984.984 0 0 1-1.268.1l-5.364-3.841a19.784 19.784 0 0 1-3.625 1.5l-1.077 6.508a.984.984 0 0 1-.976.83Z"/><path fill="#fff" d="M39.979 47.805a.984.984 0 0 1-.984-.984v-27.3a.984.984 0 0 1 .984-.984h5.968L34.672 3.356 23.398 18.539h5.968a.984.984 0 0 1 .984.984v27.3a.984.984 0 0 1-1.967 0V20.506h-6.94a.984.984 0 0 1-.79-1.57l13.23-17.817a.984.984 0 0 1 1.58 0l13.23 17.817a.984.984 0 0 1-.79 1.57h-6.944v26.315a.984.984 0 0 1-.98.984Z"/></g></g></g></svg>