<svg xmlns="http://www.w3.org/2000/svg" width="95" height="95"><defs><clipPath id="a"><path fill="#fff" d="M0 0h44.5v44.5H0Z"/></clipPath></defs><g data-name="Сгруппировать 7145" transform="translate(-130 -1165)"><circle cx="47.5" cy="47.5" r="47.5" fill="#4fd7e5" data-name="Ellipse 4" transform="translate(130 1165)"/><g clip-path="url(#a)" transform="translate(154.067 1190.333)"><path fill="#fff" d="M40.502 33.639h-5.219a.873.873 0 0 1-.872-.873V1.303a.872.872 0 0 1 .872-.873h5.215a.873.873 0 0 1 .873.873v31.463a.873.873 0 0 1-.869.873Zm-4.342-1.745h3.469V2.176H36.16Z"/></g><path fill="#fff" d="M184.139 1223.972h-5.215a.873.873 0 0 1-.873-.873v-26.074a.873.873 0 0 1 .873-.873h5.215a.873.873 0 0 1 .873.873v26.074a.873.873 0 0 1-.873.873Zm-4.342-1.745h3.47v-24.329h-3.47ZM173.709 1223.972h-5.215a.873.873 0 0 1-.873-.873v-20.859a.873.873 0 0 1 .873-.873h5.215a.873.873 0 0 1 .873.873v20.859a.873.873 0 0 1-.873.873Zm-4.342-1.745h3.47v-19.114h-3.47Z"/><g clip-path="url(#a)" transform="translate(154.067 1190.333)"><path fill="#fff" d="M9.213 33.639H3.998a.873.873 0 0 1-.873-.873V17.121a.873.873 0 0 1 .873-.873h5.215a.873.873 0 0 1 .873.873v15.645a.873.873 0 0 1-.873.873Zm-4.342-1.745h3.47v-13.9h-3.47ZM24.858 41.461H1.304a.873.873 0 0 1-.873-.872.873.873 0 0 1 .873-.873h23.554a.873.873 0 0 1 .873.873.873.873 0 0 1-.873.872ZM43.2 41.461H30.073a.873.873 0 0 1-.873-.872.873.873 0 0 1 .873-.873H43.2a.873.873 0 0 1 .873.873.873.873 0 0 1-.873.872Z"/><path fill="#fff" d="M27.465 44.069a3.484 3.484 0 0 1-3.48-3.48 3.484 3.484 0 0 1 3.48-3.48 3.484 3.484 0 0 1 3.48 3.48 3.484 3.484 0 0 1-3.48 3.48Zm0-5.215a1.737 1.737 0 0 0-1.735 1.735 1.737 1.737 0 0 0 1.735 1.735 1.737 1.737 0 0 0 1.735-1.735 1.737 1.737 0 0 0-1.735-1.735Z"/></g></g></svg>