<svg xmlns="http://www.w3.org/2000/svg" width="93" height="93"><defs><clipPath id="a"><path fill="#fff" d="M0 0h50.026v50.026H0Z"/></clipPath></defs><g data-name="Сгруппировать 7146" transform="translate(-130 -1325)"><circle cx="46.5" cy="46.5" r="46.5" fill="#662d91" data-name="Ellipse 5" transform="translate(130 1325)"/><g clip-path="url(#a)" transform="translate(152.32 1346.08)"><path fill="#fff" d="M9.782 42.471H.732a.9.9 0 0 1-.9-.9V6.819a.9.9 0 0 1 .9-.9h10.646a.9.9 0 0 1 .9.9.9.9 0 0 1-.9.9h-9.75v32.959h8.153a.9.9 0 0 1 .9.9.9.9 0 0 1-.899.893ZM49.293 42.471H12.976a.9.9 0 0 1-.9-.9.9.9 0 0 1 .9-.9h35.421V7.719h-9.726a.9.9 0 0 1-.9-.9.9.9 0 0 1 .9-.9h10.623a.9.9 0 0 1 .9.9v34.756a.9.9 0 0 1-.901.896Z"/></g><path fill="#fff" d="M198.577 1368.875a.9.9 0 0 1-.9-.9v-11.141h-6.684a.9.9 0 0 1-.9-.893.9.9 0 0 1 .9-.9h7.584a.9.9 0 0 1 .9.9v12.038a.9.9 0 0 1-.9.896ZM198.578 1382.482h-42.491a.9.9 0 0 1-.9-.9v-25.648a.9.9 0 0 1 .9-.9h7.611a.9.9 0 0 1 .9.9.9.9 0 0 1-.9.9h-6.715v23.855h40.7v-9.517a.9.9 0 0 1 .9-.9.9.9 0 0 1 .9.9v10.414a.9.9 0 0 1-.905.896ZM178.85 1385.517h-3.031a.9.9 0 0 1-.9-.893.9.9 0 0 1 .9-.9h3.031a.9.9 0 0 1 .9.9.9.9 0 0 1-.9.893ZM180.368 1393.214h-6.07a.9.9 0 0 1-.9-.9v-4.663a.9.9 0 0 1 .9-.9h6.07a.9.9 0 0 1 .9.9v4.663a.9.9 0 0 1-.9.9Zm-5.173-1.793h4.277v-2.87h-4.277Z"/><g clip-path="url(#a)" transform="translate(152.32 1346.08)"><path fill="#fff" d="M34.118 50.169h-18.21a.9.9 0 0 1-.9-.9 3.936 3.936 0 0 1 3.931-3.931h12.14a3.936 3.936 0 0 1 3.931 3.931.9.9 0 0 1-.892.9Zm-17.116-1.793h16.023a2.141 2.141 0 0 0-1.941-1.242h-12.14a2.141 2.141 0 0 0-1.943 1.242ZM11.379 13.77H6.803a.9.9 0 0 1-.9-.9V9.858a.9.9 0 0 1 .9-.9h4.576a.9.9 0 0 1 .9.9.9.9 0 0 1-.9.9H7.7v1.222h3.679a.9.9 0 0 1 .9.9.9.9 0 0 1-.9.89ZM46.258 13.769h-7.584a.9.9 0 0 1-.9-.9.9.9 0 0 1 .9-.9h6.688v-1.215h-6.688a.9.9 0 0 1-.9-.893.9.9 0 0 1 .9-.9h7.584a.9.9 0 0 1 .9.9v3.012a.9.9 0 0 1-.9.896Z"/><path fill="#fff" d="M3.768 8.961h3.035a.9.9 0 0 1 .9.9v3.015a.9.9 0 0 1-.9.9H3.768a.9.9 0 0 1-.9-.9V9.861a.9.9 0 0 1 .9-.9Zm2.138 1.793H4.664v1.222h1.242ZM38.668 36.402H11.377a.9.9 0 0 1-.9-.9V.736a.9.9 0 0 1 .9-.9h19.346a.9.9 0 0 1 .9.9.9.9 0 0 1-.9.9H12.274v32.98h25.5V1.629h-3.855a.9.9 0 0 1-.9-.9.9.9 0 0 1 .9-.9h4.751a.9.9 0 0 1 .9.9v34.776a.9.9 0 0 1-.902.897Z"/><path fill="#fff" d="M31.082 22.874H18.946a.9.9 0 0 1-.9-.893.9.9 0 0 1 .9-.9h12.14a.9.9 0 0 1 .9.9.9.9 0 0 1-.904.893ZM21.847 28.933H18.81a.9.9 0 0 1-.9-.893.9.9 0 0 1 .9-.9h3.037a.9.9 0 0 1 .9.9.9.9 0 0 1-.9.893ZM31.082 28.944h-6.066a.9.9 0 0 1-.9-.893.9.9 0 0 1 .9-.9h6.07a.9.9 0 0 1 .9.9.9.9 0 0 1-.904.893ZM21.847 25.898H18.81a.9.9 0 0 1-.9-.893.9.9 0 0 1 .9-.9h3.037a.9.9 0 0 1 .9.9.9.9 0 0 1-.9.893ZM31.082 25.909h-6.066a.9.9 0 0 1-.9-.893.9.9 0 0 1 .9-.9h6.07a.9.9 0 0 1 .9.9.9.9 0 0 1-.904.893ZM25.013 8.944a2.431 2.431 0 0 1 2.428 2.428v1.017a2.431 2.431 0 0 1-2.428 2.425 2.431 2.431 0 0 1-2.428-2.428v-1.017a2.431 2.431 0 0 1 2.428-2.425Zm0 4.08a.636.636 0 0 0 .635-.635v-1.017a.636.636 0 0 0-.635-.635.636.636 0 0 0-.635.635v1.017a.636.636 0 0 0 .635.633Z"/><path fill="#fff" d="M28.048 19.028a.9.9 0 0 1-.9-.9v-2.957l-1.422-.359h-1.432l-1.422.359v2.914a.9.9 0 0 1-.9.9.9.9 0 0 1-.9-.9v-3.063a1.621 1.621 0 0 1 1.151-1.536l.052-.015 1.681-.425a.9.9 0 0 1 .219-.027h1.655a.9.9 0 0 1 .22.027l1.681.425.052.015a1.621 1.621 0 0 1 1.151 1.536v3.106a.9.9 0 0 1-.886.9Z"/><path fill="#fff" d="M25.012 5.907a6.974 6.974 0 0 1 6.966 6.966 6.974 6.974 0 0 1-6.966 6.966 6.974 6.974 0 0 1-6.966-6.965 6.974 6.974 0 0 1 6.966-6.967Zm0 12.14a5.179 5.179 0 0 0 5.173-5.174A5.179 5.179 0 0 0 25.012 7.7a5.179 5.179 0 0 0-5.173 5.174 5.179 5.179 0 0 0 5.173 5.173Z"/></g></g></svg>