<svg xmlns="http://www.w3.org/2000/svg" width="1019.723" height="600"><path fill="#fff" d="m631.325 599.999.52-14.152 7.439-11.747-2.937-6.07-3.329-.979.2-.392-14.88-3.131-15.665-11.553-12.727-3.916-8.81 4.7-8.616-1.958-37.79-28.391-20.167-9.007-17.425-18.406 7.049-7.831-7.051 7.831 1.567 2.937-4.11-3.914-9.008 3.131-29.566-20.167-10.572-14.1-34.657-24.083-31.328-27.022-4.7-30.739-12.53-11.355-.418-1.143-17.858-9.324-5.055-10.354.641-9.4-17.722-20.924-8.612 2.246-1.149.958-13.315-6.266-33.089 2.35-23.692-18.209 1.565-7.049.149-.189.1-.433 4.545-5.818-5.571-9.223.366-.42-.124-.2 4.112-4.7h8.42l-8.42-13.313-11.943-3.916 5.483-4.895-.785-6.266 4.7-3.133-12.538-11.744-34.655-4.7 1.762-7.049-5.679-7.831-13.314-.783-17.23-19.777-3.133 9.4-16.644-5.483-9.591 5.483 11.159 9.593 8.614 18.8-6.264 1.566-3.133-10.182-14.293-10.967-9.2 5.483 2.35 5.481-7.049 10.182.588 3.918h-4.5l-8.03.783-13.312-.783-10.182 3.131-15.867 12.535-3.133 8.81v17.23l3.133 14.88 4.7 3.918-8.615 7.831L.001 288.038 27.609 2.562 38.855-.001h173.378l118.555 99.532 31.246 43.028 7.245 9.986-7.243-9.986-.393-.783-.392-.392.392-.783 66.958-10.381 70.683 6.854L526.701 122l19.383 23.692 15.076 8.81 17.623 34.07 17.23-9.791-1.958 45.035-1.958 3.523.2 29.37 29.174-.587 2.546 20.95 10.963 43.467 7.245.587 13.511 1.175 43.857-4.7 2.939 1.369 4.306-2.741 6.462 11.747 6.46-1.173-1.759 13.709-5.093 4.895 20.169 11.553 8.811 5.089 2.937-2.935 4.308 1.762 2.349-1.762-1.37-7.833-2.546-.587-.586-14.88 7.635-5.287.392-.392 1.958-6.853 16.642-12.14-1.175-12.922 16.644-9.2 4.308.588-1.175-4.308 12.922-11.943 23.889-9.987 13.509-16.642 1.371-5.091 8.42-5.483 9.4 5.287 5.281-13.512 12.727-5.874 4.5-4.5 13.705 8.028-3.131 4.112-19.973 10.182-.586 8.614-9.4 2.741-10.964 15.469-16.055 11.357 1.565 4.895 12.335 2.35 3.72 4.7 11.557-5.683 2.741.39 5.287 8.616.2 8.614 17.817 3.329 6.462 4.5 1.566-.392-.587-4.895 2.741-.979 3.329 5.874 2.544-4.112 4.5 3.525-.2-18.6 8.028 3.525 2.937-10.182-1.565-5.875 1.175-4.5 2.544-.2 1.567 9.986 3.72-2.741 8.027 9.593 2.546 10.966 4.9-1.567 3.523 2.937 4.895-4.112 2.546.785 2.937 10.768-.785 3.72.2 1.175 12.532-6.07 5.483 2.544.783 3.329 3.133.2 3.328 4.308 31.916.587 1.958 3.525-21.146 13.509-1.372 8.028-4.308-.783-1.958 5.483-15.077-6.462-2.154 1.958 6.07 10.572-1.566 5.483-11.553-5.091-7.248 3.332v4.308l-7.245 5.285 3.72 5.483-10.378-.392-4.112 7.441-4.9 1.762-3.329-8.224-4.895 4.9-16.446-6.854-34.461 11.161-5.677-.39-6.072-10.77-4.5.785-7.048-5.679 24.475-24.67.586-.587-9.2-2.937-.979-3.327 2.35-.589-9.008-12.336-2.348-1.567-4.5-2.935-2.741 1.956-.783 7.441-6.266 6.656-24.866 12.728-3.719 5.677-3.722.392-14.88-12.14-4.9 2.741-1.764 4.308.589 9.6-7.049 3.914 8.811 18.211-1.762 2.741-4.5-1.567.2 2.546 5.481 4.895-2.154 1.371-11.161-1.567h-.393c-3.307.351-20 2.389-21.426 6.825-.325 1-3.312 1.42-1.285 2.771l9.4-2.35 7.245-.979.589 6.266-6.266-.2-2.743 2.743-2.348-3.329-1.175 1.762 8.42 13.118-2.154 1.764-2.35-1.177-2.544-6.264-2.743-.392-.391-.979-.392-.2h-.979l-.392.392.392-.392h.979l.392.2.391.979-.783-.2 1.958 5.874-.2 5.875-3.916-2.742-3.523 1.371.194 16.055-5.481 5.679.588 1.762-4.9 1.566-45.622-4.895-12.335 6.853-1.895-8.909 2.679 12.631-4.308.979-1.372 13.705-.979-.392-4.5-2.937-3.329-1.566 3.329 1.567 4.5 2.937 21.148 9.4 12.138 4.7-14.1 8.383v.626l9.6 2.348 14.684-2.544 6.854 11.355-1.372 2.939-5.091 1.566v19.971l8.616 15.273 10.18 7.441 1.762 3.916-5.874 19.188-7.635 2.35-4.308 12.922-10.282 15.717Zm29.888-60.163h.588l3.329.587h1.958l.194-.2-.2.2h-1.956l-3.329-.587Zm10.378-10.768Zm-.979-4.895.979 4.895-.979-4.9Zm13.705-8.812-.39-3.72Zm2.939-12.14h.39l.979.2 1.175.392 2.937 1.369 1.762.392-1.762-.392-2.937-1.369-1.175-.392-.979-.2h-.783l-.392.392h-.391l-.586.587-.395.979.395-.979.586-.587h.391l.392-.392Zm12.726-1.369Zm-.393-1.567.393 1.567-.393-1.567-.39-1.371Zm-2.348-3.329.979.785-.979-.785-1.764-1.958Zm-191.883-10.574-1.175.785 1.175-.783 1.372-.588Zm18.6-13.118-.391.981.391-.979.588-.589Zm11.747-9.593-9.593 7.441 10.376-8.028.323-.361Zm75.188 6.853-.783.392.783-.39.392-.392Zm-18.013-1.173h.586l.785-.2-.785.194h-.586l-.628-.155Zm19.383-1.762-.391 1.566.392-1.566.783-2.156Zm-8.811-6.658-8.028 7.635 8.03-7.635 1.565-1.371Zm57.369 2.741-1.762 3.721 1.764-3.721.979-1.566Zm-47.185.783-.589.979.589-.977.783-.979Zm1.762-1.762.979-.39h1.371l.391.194-.393-.2h-1.369Zm-7.832-1.762-.2-.783Zm25.256-1.764-1.565 1.567 1.567-1.566 1.565-1.175Zm37.594 0 2.351.783-2.351-.785-1.369-.17Zm-3.719 0-1.372.392-.586.2.588-.2 1.37-.39 2.154-.2Zm-60.5 0h.391l.2.194-.2-.2h-.587l-.393.2.393-.194Zm35.831-1.762 2.154.783.979.532-.979-.534-2.154-.783-2.154-.39Zm-99.075-1.567-1.511 1.715 1.708-1.911Zm-9.789-3.525.392.2 1.37.587.487.062-1.27-.452-.977-.392-.2-.194Zm43.664-1.958-1.179 1.565 1.175-1.566.39-.2Zm3.912 0Zm-2.937-.587.392-.2Zm-43.271-7.831.1.1-.1-.1-.816-.164Zm-17.23-4.308 1.175 2.743-1.175-2.743-9.593-14.88Zm28.587.392-1.369-1.173Zm138.428-4.5.187 3.533Zm.979-2.35-.391.392.393-.392.783-.783Zm-145.869-2.937h1.565l3.721.783-3.721-.783h-1.958l-.783.392.783-.392Zm152.135-1.958-.2.392-.586.979.588-.979.2-.392.194-.392Zm-141.367-2.741 1.958 1.175 2.546 1.173.39.2-.39-.2-2.546-1.173-1.958-1.175-.783-.2-.393.2.393-.2Zm141.563 1.171Zm-.392-.588.2.392.2.2-.194-.2-.2-.392-.588-.587Zm-183.657-1.37Zm163.3-.979.259.131-.259-.131-1.958-.979Zm9.983-1.371.981.783.2.1-.2-.1-.979-.783-.586-.587Zm-14.88-2.546 1.371 1.567-1.37-1.566-.2-.392Zm-152.722 0-2.154 1.173 2.887-1.347Zm233.392-2.743.2.2.783.587.979.589.588.2 1.173.2-1.173-.2-.588-.2-.979-.589-.783-.587-.2-.2-.392-.783Zm-174.262-1.173 1.369.783.981.194-.979-.194-1.371-.783-7.049-4.9Zm173.87 0-.194-.2Zm-168.589-5.285h.39l.393.194.785.392 3.719 3.329 1.566.979.979.392-.979-.392-1.566-.979-3.719-3.329-.785-.392-.391-.194h-.588l-.393.194.393-.194Zm170.148 2.348-.521.523.523-.521 4.306-2.156Zm-82.627-3.327.393.39-.391-.39-.392-.157Zm-4.7-.589.155.039-.155-.039-.393-.194Zm-.393-.194-.194-.2Zm-98.878-.392h.392l.393.2.391.2-.391-.2-.393-.2Zm186.6-2.35h2.742l.979.2.587.392.98 1.369.391.589-.391-.589-.785-1.175-.2-.2-.587-.39-.979-.2h-2.74l-.18-.017Zm-88.893-2.154v3.527l.2.39-.194-.39v-3.525l-.393-1.566Zm-61.285 1.764-1.762-.783Zm146.654-.783.2.194.586.392.235.157-.233-.157-.588-.392-.2-.2-.1-.39Zm-.391-2.939.194-.979v-.392Zm-85.958-.979.392.785-.39-.785-.393-.392Zm-.391-.392-.392-.194Zm-8.224-.587 6.853.2.586.2-.588-.2-6.853-.2-1.175-.39Zm-3.133-4.7.2.779-.392-2.15Zm70.683-4.7.2.589.2.588.393.587 1.173.979.783.39 1.764.589 2.154.392-2.154-.392-1.762-.589-.783-.39-1.175-.979-.393-.587-.2-.588-.2-.589-.2-1.566Zm-70.876 3.33Zm.2-1.371-.2 1.371.2-1.369.2-1.371Zm96.333-2.348 1.175.194 2.154.981.979.587.194.392.588.979-.588-.979-.194-.392-.979-.587-2.154-.981-1.175-.194h-.391l-.392.194.392-.194Zm-95.161-.979-.977 1.958.979-1.958 1.175-3.525Zm-111.8 1.369Zm243.576-2.544.586 1.762-.586-1.762-.2-.979Zm-239.268.979-.393.39.395-.39.586-.587Zm.588-.979v.392l.779-1.756Zm-13.314-2.35.586.2.783.2.2.2.392.194 1.568 1.371-1.568-1.371-.392-.194-.194-.2-.785-.2-.586-.2h-.393l-.489.2.491-.2Zm191.687-1.958-.391 1.371.392-1.371.194-.979Zm.783-2.544-.292.587.293-.587.977-.588Zm-71.074-.588.39.785-.39-.785-.783-.979Zm72.053 0 3.329-1.369c.2 0 .392 0 .392-.2Zm-170.916-1.974.568-.377 1.371-.981Zm71.055-8.211 2.741 1.175.393.2.392.2.2.2.194.783v3.916l.2.39.2.392.391.589h.2l.1.1-.1-.1h-.2l-.393-.589-.2-.392-.194-.39v-3.916l-.2-.783-.2-.2-.391-.2-.392-.2-2.743-1.175Zm-10.964.392.2.588.392 1.762 1.173 3.72.2.2.391.39.2.2h.391l.586.2-.588-.2h-.391l-.2-.2-.392-.39-.2-.2-1.173-3.72-.392-1.762Zm112.978 1.175 1.958 2.348.783 1.175.2.783.194.392v.392l-.194.587.2-.587v-.392l-.2-.392-.2-.783-.783-1.175-1.958-2.348-.2-.2Zm-81.063 1.762-.194.2.2-.2.586-1.175Zm132.362-14.684 2.741 2.348 1.567 1.762.586.979 1.566 3.133.394 1.958.39 4.112-.39-4.112-.394-1.958-1.566-3.133-.586-.979-1.567-1.762-2.741-2.348-8.812-10.77Zm-166.04 10.766h.979l.586.39.2.392-.2-.392-.586-.39h-.979Zm124.723-.783-.39.39.392-.39.2-.783Zm-284.885-.979.391.2.586.194-.586-.194-.391-.2-.588-.588Zm9.2-.2-.587.2.589-.2.39-.392Zm270.007-.2 1.941.389-1.549-.389-.979-.2Zm-269.028-.783-.391.39.392-.39.194-.392Zm98.1-.2-2.154-.2Zm-100.051-5.287 1.956 3.133v.392l.2.783-.194-.783v-.39l-2.156-3.593Zm65.783 1.78 1.958 2.348-1.958-2.35-2.04-2.855Zm-76.363 1.371.395.977-.395-.979-.021-.172Zm197.562-.2Zm-98.878-1.177-.448.336.448-.334.783-.2Zm96.332-11.747 1.567 1.958.589 1.371.783 2.348.37 2.6.021-.248-.2-1.369-.194-1.371-1.175-3.133-.586-.783-1.175-1.371-.435-.544Zm-185.159 7.564-.065-.516-.19-.758Zm14.424-2.277-.783-.587Zm19.382-.589-.977.2.979-.194.2-.2Zm-43.465 0-.2-.39Zm-1.175-1.764-.785-.783-.829-.473Zm70.291-2.935.783 2.739-.783-2.741-.586-3.133ZM414.701 335.42h.393l21.613 12.177-20.046-11.392-1.565-.785h-.981l-5.665 7.032 1.162-1.353 4.5-5.679Zm490.673 8.224 1.369.587-1.369-.587-.293-.2Zm-434.283-.392.394.588-.393-.587-.586-1.177Zm-66.572-.39.393.293-.391-.293-.2-.2Zm498.5-1.371.882.882-.88-.882-1.177-.783Zm-412.548-.979-.194 1.764.2-1.764.194-.587Zm396.886-.392-2.351 1.175-2.1.766 2.692-.962 1.762-.977.783-.2Zm-484.015.981-.2-1.762Zm496.35-.979h.587l1.565.587-1.565-.588h-.587l-9.2-.587Zm-145.674-2.939.194.589.393.39.2.2.39.392 1.96.783-1.96-.783-.39-.392-.2-.2-.393-.39-.194-.589-.2-.977Zm166.865.241.151.151.194.2v.2h.2l.518-.149-1.046-.415Zm-413.18.544-.2-1.175Zm412.941-.2.194-.192v-.086Zm-283.52-2.935.1 2.644Zm-128.444-1.762-.977 2.742.979-2.742.587-.783Zm2.938-1.173.586.39-.588-.392-.586-.39Zm127.073-1.371Zm-270.79-21.733-.977 1.173-15.665 19.581.019.026 16.625-20.78 21.146-6.266Zm274.119 19.773.2-.2Zm286.064-1.566-.439.635 1.418-1.418Zm4.895-3.131-.389.192.974-.323Zm-539.231-5.091.586 1.566-.586-1.566-.587-2.937Zm-1.371-12.922.784 9.986-.784-9.987-.064-.325Zm-79.782 9.787Zm-.008-.006h-.006l-.013-.009Zm-.137-.1-.043-.032-.015-.009Zm-.1-.069-.015-.009Zm-.092-.069Zm-.008 0-.024-.018Zm-.128-.1-.026-.019-.017-.013a.355.355 0 0 0 .052.031Zm-.067-.049-.01-.007Zm-.063-.047-.022-.019h-.005Zm-.2-.149-.013-.011-.013-.009a.31.31 0 0 0 .035.019Zm-.09-.067-.019-.015-.008-.005Zm-.084-.064-.028-.022h-.007Zm-.052-.041Zm-.089-.066-.03-.024-.017-.011Zm-.075-.056-.039-.032-.043-.034-.011-.007-.021-.013c.045.026.083.056.122.086Zm-.142-.108-.028-.022-.017-.011Zm-.054-.041-.019-.015-.041-.032a.761.761 0 0 1 .067.046Zm-.063-.049-.022-.019-.1-.073-.007-.006c.052.034.095.066.136.098Zm-.151-.116-.019-.015h-.005Zm-.062-.047-.037-.027Zm-.088-.069Zm-.007-.005-.022-.017Zm-.077-.058Zm-.028-.022-.015-.012-.043-.034-.022-.017-.021-.015Zm-.119-.092-.024-.019-.03-.022-.013-.011Zm-.127-.1-.021-.017Zm-.09-.069Zm-.024-.019-.018-.014Zm-.1-.08Zm-.026-.02-.039-.031-.012-.009Zm-.07-.054-.012-.01-.042-.032Zm-.089-.07-.009-.007-.036-.027Zm-.09-.069Zm-7.682-6.522c2.705 1.926 4.967 4.415 7.59 6.451-2.623-2.036-4.885-4.525-7.59-6.451l-.09-.065Zm89.477-3.843.049.148-.049-.148-.2-.587Zm-2.154-.979-.587.2.589-.2.586-.2Zm-98.52-.491c.1.054.192.106.29.155-.1-.049-.194-.1-.29-.155a12.431 12.431 0 0 1-3.415-2.847 12.431 12.431 0 0 0 3.42 2.849Zm-5.5-6.643c.245.469.465.955.7 1.437-.228-.482-.45-.968-.7-1.437-.458-.878-.79-1.838-1.173-2.763.384.927.717 1.888 1.174 2.765Zm-6.425-7.473c-.2-.1-.4-.2-.6-.306.2.11.398.211.601.304Zm-15.967-7.138a16.327 16.327 0 0 1 3.985.57c.036.011.073.022.108.035-.036-.013-.073-.024-.108-.035a16.327 16.327 0 0 0-3.985-.57q-.289-.017-.577-.017.29.002.578.019Zm-5.694 0a7.68 7.68 0 0 0 1.64.157 7.68 7.68 0 0 1-1.64-.157 7.87 7.87 0 0 1-3.794-2.089 7.87 7.87 0 0 0 3.795 2.091Zm5.117-.017Zm80.2-5.453 1.175 1.958-1.173-1.958-.588-1.566Zm9.4-27.8 2.154 6.07-2.154-6.072-2.154-9Zm-3.133-23.3.979 14.3-.977-14.3.391-4.893Zm40.334-55.215-15.859 15.273 15.861-15.273 2.152-2.544Zm2.546-5.481-1.175-.39Zm-14.882-4.112.916.456-.914-.456-.015-.009Zm-3.719-2.546.571.392-4.683-4.5Zm593.271 198.931 3.307 1.457.022.11Z" data-name="Пересечение 1" opacity=".06"/></svg>