<svg xmlns="http://www.w3.org/2000/svg" width="57" height="57"><g data-name="Сгруппировать 7151" transform="translate(-518.5 -2963)"><rect width="57" height="57" fill="#ffb201" data-name="Rectangle 63" opacity=".2" rx="10" transform="translate(518.5 2963)"/><path fill="#ffb201" d="M554.75 3002.75h-17.5a2.5 2.5 0 0 1-2.5-2.5V2984a3.754 3.754 0 0 1 3.75-3.75h13.75a2.5 2.5 0 0 1 2.5 2.5H538.5a1.25 1.25 0 0 0 0 2.5h16.25a2.5 2.5 0 0 1 2.5 2.5v12.5a2.5 2.5 0 0 1-2.5 2.5Zm-17.5-15v12.5h17.5v-2.5H546a1.252 1.252 0 0 1-1.25-1.25v-5a1.252 1.252 0 0 1 1.25-1.25h8.75v-2.5Zm10.625 5a.625.625 0 0 0-.625.625v1.25a.625.625 0 0 0 .625.625h1.25a.625.625 0 0 0 .625-.625v-1.25a.625.625 0 0 0-.625-.625Z" data-name="Icon color"/></g></svg>