<svg xmlns="http://www.w3.org/2000/svg" xml:space="preserve" width="1000" height="223.244"><path fill="red" d="M312.256 34.86c-3.667-13.722-14.474-24.528-28.196-28.196C259.19 0 159.46 0 159.46 0S59.731 0 34.86 6.664C21.138 10.332 10.332 21.138 6.664 34.86 0 59.731 0 111.622 0 111.622s0 51.891 6.664 76.762c3.668 13.722 14.474 24.528 28.196 28.196 24.871 6.664 124.6 6.664 124.6 6.664s99.73 0 124.6-6.664c13.722-3.668 24.529-14.474 28.196-28.196 6.664-24.87 6.664-76.762 6.664-76.762s0-51.891-6.664-76.762z"/><path fill="#FFF" d="m127.568 159.46 82.855-47.836-82.855-47.84z"/><g fill="#282828"><path d="M462.914 203.094c-6.311-4.254-10.797-10.869-13.456-19.841-2.662-8.97-3.991-20.904-3.991-35.807v-20.298c0-15.052 1.517-27.14 4.56-36.263 3.04-9.122 7.79-15.772 14.255-19.955 6.461-4.18 14.938-6.272 25.43-6.272 10.338 0 18.623 2.13 24.859 6.386 6.233 4.258 10.794 10.911 13.684 19.955 2.886 9.048 4.333 21.097 4.333 36.15v20.297c0 14.903-1.407 26.877-4.219 35.921-2.815 9.048-7.377 15.662-13.684 19.841-6.311 4.18-14.863 6.272-25.658 6.272-11.1 0-19.806-2.13-26.113-6.386zm35.35-21.894c1.746-4.56 2.623-12.01 2.623-22.35v-43.562c0-10.034-.877-17.369-2.622-22.008-1.75-4.637-4.83-6.957-9.238-6.957-4.258 0-7.262 2.32-9.008 6.957-1.75 4.64-2.623 11.974-2.623 22.008v43.562c0 10.34.834 17.79 2.509 22.35 1.671 4.561 4.71 6.842 9.122 6.842 4.408 0 7.488-2.28 9.238-6.842zM947.316 147.778v7.07c0 8.973.262 15.702.798 20.185.53 4.487 1.63 7.755 3.307 9.807 1.672 2.053 4.254 3.08 7.754 3.08 4.71 0 7.943-1.826 9.692-5.474 1.746-3.65 2.698-9.73 2.851-18.246l27.141 1.596c.151 1.219.228 2.89.228 5.018 0 12.925-3.536 22.579-10.605 28.965-7.069 6.385-17.069 9.579-29.992 9.579-15.507 0-26.381-4.864-32.614-14.597-6.236-9.728-9.352-24.78-9.352-45.157v-24.405c0-20.982 3.231-36.298 9.695-45.956 6.462-9.653 17.523-14.483 33.184-14.483 10.795 0 19.08 1.978 24.859 5.93 5.777 3.956 9.843 10.114 12.202 18.474 2.357 8.364 3.536 19.921 3.536 34.667v23.947h-52.684zm3.99-58.841c-1.595 1.977-2.662 5.209-3.192 9.692-.536 4.487-.798 11.29-.798 20.412v10.036h23.033v-10.036c0-8.969-.305-15.772-.91-20.412-.61-4.636-1.71-7.904-3.308-9.806-1.597-1.9-4.069-2.852-7.412-2.852-3.347 0-5.816.991-7.413 2.966zM386.274 145.16 350.468 15.846h31.245l12.543 58.614c3.194 14.447 5.549 26.762 7.07 36.947h.913c1.062-7.298 3.42-19.535 7.07-36.718l13-58.843h31.246L417.29 145.161v62.038h-31.017V145.16zM634.209 67.393v139.805h-24.631l-2.738-17.105h-.683c-6.694 12.926-16.728 19.386-30.106 19.386-9.276 0-16.118-3.04-20.526-9.123-4.412-6.079-6.614-15.583-6.614-28.508V67.393h31.474v102.63c0 6.237.684 10.684 2.052 13.343 1.369 2.662 3.649 3.991 6.842 3.991 2.737 0 5.36-.834 7.868-2.51 2.51-1.671 4.37-3.798 5.589-6.385V67.393h31.473zM795.647 67.393v139.805h-24.63l-2.739-17.105h-.683c-6.693 12.926-16.728 19.386-30.105 19.386-9.276 0-16.118-3.04-20.526-9.123-4.412-6.079-6.614-15.583-6.614-28.508V67.393h31.473v102.63c0 6.237.685 10.684 2.052 13.343 1.37 2.662 3.65 3.991 6.842 3.991 2.738 0 5.36-.834 7.869-2.51 2.51-1.671 4.37-3.798 5.588-6.385V67.393h31.473z"/><path d="M719.733 41.165h-31.245v166.033h-30.789V41.165h-31.245V15.849h93.279v25.316zM899.813 89.742c-1.904-8.816-4.982-15.202-9.238-19.157-4.258-3.952-10.113-5.93-17.56-5.93-5.78 0-11.176 1.636-16.193 4.903-5.018 3.271-8.895 7.566-11.632 12.887h-.23l.002-73.667h-30.333v198.419h26l3.192-13.228h.685c2.43 4.715 6.079 8.438 10.947 11.176 4.864 2.736 10.263 4.104 16.193 4.104 10.64 0 18.473-4.903 23.491-14.71 5.017-9.807 7.527-25.123 7.527-45.955v-22.123c0-15.658-.953-27.898-2.851-36.72zm-28.851 57.026c0 10.188-.42 18.171-1.255 23.946-.837 5.781-2.244 9.886-4.22 12.317-1.977 2.434-4.64 3.649-7.98 3.649-2.588 0-4.983-.606-7.185-1.825-2.206-1.215-3.991-3.04-5.36-5.473v-79.369c1.062-3.797 2.886-6.916 5.474-9.35 2.583-2.43 5.395-3.649 8.438-3.649 3.193 0 5.663 1.255 7.412 3.763 1.746 2.508 2.965 6.728 3.65 12.658.684 5.93 1.026 14.368 1.026 25.315v18.018z"/></g></svg>