<svg xmlns="http://www.w3.org/2000/svg" xmlns:xlink="http://www.w3.org/1999/xlink" width="579.024" height="578.46" viewBox="0 0 579.024 578.46">
  <defs>
    <linearGradient id="linear-gradient" x1="-6.193" y1="5.614" x2="-6.192" y2="5.614" gradientUnits="objectBoundingBox">
      <stop offset="0" stop-color="#904f4d"/>
      <stop offset="1" stop-color="#fe7062"/>
    </linearGradient>
    <clipPath id="clip-path">
      <path id="Контур_18463" data-name="Контур 18463" d="M698.555,150.262a291.8,291.8,0,0,0-37.328,2.413c-123.7,16.167-184.562,117-196.085,135.172C432.88,338.713,413.82,403,413.82,466.456c0,60.433,17.284,120.085,56.892,166.667,53.675,63.121,127.923,78.2,166.331,86,26.009,5.281,148.4,26.91,251.825-47.3,8.8-6.313,19.936-14.307,31.711-26.694,89.19-93.9,98.636-318.414-34.015-429.557C833.739,171.314,764.1,150.25,698.951,150.25Z" transform="translate(-413.82 -150.25)"/>
    </clipPath>
    <linearGradient id="linear-gradient-3" x1="-0.172" y1="0.874" x2="-0.172" y2="0.874" gradientUnits="objectBoundingBox">
      <stop offset="0" stop-color="#d9fcdb"/>
      <stop offset="1" stop-color="#ebfceb"/>
    </linearGradient>
    <clipPath id="clip-path-2">
      <rect id="Прямоугольник_883" data-name="Прямоугольник 883" width="579.013" height="578.436"/>
    </clipPath>
    <clipPath id="clip-path-3">
      <path id="Контур_18464" data-name="Контур 18464" d="M463.78,417.641c0,104.614,84.8,189.411,189.411,189.411S842.6,522.255,842.6,417.641,757.805,228.23,653.191,228.23h0c-104.614,0-189.411,84.81-189.411,189.411" transform="translate(-463.78 -228.23)"/>
    </clipPath>
    <clipPath id="clip-path-5">
      <path id="Контур_18465" data-name="Контур 18465" d="M525.38,405.306A115.476,115.476,0,1,0,640.856,289.83,115.476,115.476,0,0,0,525.38,405.306h0" transform="translate(-525.38 -289.83)"/>
    </clipPath>
    <clipPath id="clip-path-7">
      <path id="Контур_18466" data-name="Контур 18466" d="M584.31,393.5a44.733,44.733,0,1,0,44.733-44.733h0A44.739,44.739,0,0,0,584.31,393.5" transform="translate(-584.31 -348.77)"/>
    </clipPath>
    <linearGradient id="linear-gradient-4" x1="-6.19" y1="4.619" x2="-6.19" y2="4.619" gradientUnits="objectBoundingBox">
      <stop offset="0" stop-color="#ff928e"/>
      <stop offset="1" stop-color="#fe7062"/>
    </linearGradient>
    <clipPath id="clip-path-9">
      <rect id="Прямоугольник_887" data-name="Прямоугольник 887" width="252.305" height="6.661" transform="translate(0 178.405) rotate(-45)"/>
    </clipPath>
    <linearGradient id="linear-gradient-5" x1="-2.025" y1="2.179" x2="-2.025" y2="2.179" gradientUnits="objectBoundingBox">
      <stop offset="0" stop-color="#005b0b"/>
      <stop offset="1" stop-color="#108e16"/>
    </linearGradient>
    <clipPath id="clip-path-10">
      <path id="Контур_18467" data-name="Контур 18467" d="M658.4,349.342h0l-37.16,47.266a1.883,1.883,0,0,0,.276,2.641,1.863,1.863,0,0,0,2.364,0l47.266-37.16c2.449-2.449-7.766-13.119-11.726-13.119h-.072a1.408,1.408,0,0,0-.948.372" transform="translate(-620.823 -348.97)"/>
    </clipPath>
    <linearGradient id="linear-gradient-6" x1="-7.056" y1="5.183" x2="-7.056" y2="5.183" xlink:href="#linear-gradient-5"/>
    <clipPath id="clip-path-12">
      <rect id="Прямоугольник_889" data-name="Прямоугольник 889" width="117.492" height="65.306"/>
    </clipPath>
    <clipPath id="clip-path-14">
      <rect id="Прямоугольник_891" data-name="Прямоугольник 891" width="121.945" height="68.426"/>
    </clipPath>
    <clipPath id="clip-path-15">
      <rect id="Прямоугольник_890" data-name="Прямоугольник 890" width="121.921" height="68.426"/>
    </clipPath>
    <clipPath id="clip-path-16">
      <rect id="Прямоугольник_893" data-name="Прямоугольник 893" width="78.124" height="25.217"/>
    </clipPath>
    <clipPath id="clip-path-18">
      <rect id="Прямоугольник_895" data-name="Прямоугольник 895" width="56.46" height="45.621"/>
    </clipPath>
    <clipPath id="clip-path-19">
      <rect id="Прямоугольник_894" data-name="Прямоугольник 894" width="56.46" height="45.597"/>
    </clipPath>
    <clipPath id="clip-path-20">
      <path id="Контур_18468" data-name="Контур 18468" d="M474.273,629.315a4.375,4.375,0,0,0,3.949,4.765c.06,0,.132.012.192.012,8.45.432,26.538,1.3,33.031,1.068a1.438,1.438,0,0,0,1.368-1.476,1.478,1.478,0,0,0-.1-.456,3.2,3.2,0,0,0-1.608-1.728L481.367,617.48l-5.269-.9c-.012-.012-1.212,6.385-1.824,12.735" transform="translate(-474.254 -616.58)"/>
    </clipPath>
    <linearGradient id="linear-gradient-7" x1="-9.843" y1="3.623" x2="-9.842" y2="3.623" xlink:href="#linear-gradient-5"/>
    <clipPath id="clip-path-21">
      <path id="Контур_18469" data-name="Контур 18469" d="M475.04,613.606l.84,7.682s5.209,2.485,8.81-.228l-2.088-8.57Z" transform="translate(-475.04 -612.49)"/>
    </clipPath>
    <clipPath id="clip-path-22">
      <path id="Контур_18470" data-name="Контур 18470" d="M457.609,526.739s-1.584-52.655-.024,1.86c1.4,48.778,15.267,99.957,18.16,110.171a2.552,2.552,0,0,0,2.532,1.86,25.732,25.732,0,0,0,8.546-1.656,1.49,1.49,0,0,0,.888-1.728c-10.058-44.013-7.406-141.978-6.985-143.982l-21.568-.2Z" transform="translate(-456.897 -493.06)"/>
    </clipPath>
    <linearGradient id="linear-gradient-8" x1="-2.44" y1="1.861" x2="-2.391" y2="1.861" xlink:href="#linear-gradient-5"/>
    <clipPath id="clip-path-23">
      <path id="Контур_18471" data-name="Контур 18471" d="M444.08,630.888h0a2.681,2.681,0,0,0,2.04,3.181,2.2,2.2,0,0,0,.276.048c2.785.3,7.081.7,10.526.708h.024a2.671,2.671,0,0,0,2.665-2.653c0-.1-.012-.192-.012-.288a22.393,22.393,0,0,0-5.125-12.362l-6.721-.432c-.012-.012-1.848,3.2-3.673,11.8" transform="translate(-444.019 -619.09)"/>
    </clipPath>
    <linearGradient id="linear-gradient-9" x1="-17.008" y1="6.327" x2="-17.006" y2="6.327" xlink:href="#linear-gradient-5"/>
    <clipPath id="clip-path-24">
      <path id="Контур_18472" data-name="Контур 18472" d="M445.88,610.914l2.016,11.618s2.088,1.584,6.253.492l-.9-12.495Z" transform="translate(-445.88 -610.53)"/>
    </clipPath>
    <clipPath id="clip-path-25">
      <path id="Контур_18473" data-name="Контур 18473" d="M442.819,496.259c-9.062,51.611.636,127.791,4.009,142.71a2.308,2.308,0,0,0,1.86,1.776,15.568,15.568,0,0,0,6.7-.2,2.143,2.143,0,0,0,1.548-1.944c.588-12.039.444-85.938,8.7-115.08a6.634,6.634,0,0,1,2.593-3.637l15.591-10.862,1.356-17.764-.024-.024Z" transform="translate(-439.051 -491.23)"/>
    </clipPath>
    <linearGradient id="linear-gradient-10" x1="-2.301" y1="1.804" x2="-2.301" y2="1.804" xlink:href="#linear-gradient-5"/>
    <clipPath id="clip-path-26">
      <path id="Контур_18474" data-name="Контур 18474" d="M498.184,414.9h0c-25.673-.672-54.059,6.229-54.059,6.229-8.078,44.577-2.257,96.14-2.257,96.14,19.828,5.4,42.321-2.785,42.321-2.785,3.481-18.628,19.4-71.007,19.4-71.007a84.483,84.483,0,0,0,31.482-9.662c-6.421-7.586-9.386-17.188-10.658-22.865a85.985,85.985,0,0,1-26.225,3.949" transform="translate(-439.84 -410.95)" fill="url(#linear-gradient)"/>
    </clipPath>
    <clipPath id="clip-path-27">
      <path id="Контур_18475" data-name="Контур 18475" d="M556.3,381.69a4.748,4.748,0,0,0-1.728.324V382c-3.925,15.927-23.861,28.674-44.277,34.807,1.272,5.677,4.249,15.279,10.658,22.865,33.955-18.664,39.308-56,39.308-56a4.912,4.912,0,0,0-3.925-1.98H556.3" transform="translate(-510.29 -381.69)"/>
    </clipPath>
    <clipPath id="clip-path-28">
      <path id="Контур_18476" data-name="Контур 18476" d="M547.686,377.139h0c-1,1.332-.06,8.378-.012,10.034,1.764,3.445,4.837,2.2,4.573,1.356a6.848,6.848,0,0,0,5.149-2.977c1.128-1.572,2.328-3.589,3.2-5.137a6.858,6.858,0,0,0,.732-5.065,24.349,24.349,0,0,0-2.821-5.713l4.969-5.077a2.413,2.413,0,0,0-.264-3.361c0,.012-10.238,8.858-15.531,15.939" transform="translate(-547.229 -361.2)"/>
    </clipPath>
    <clipPath id="clip-path-29">
      <path id="Контур_18477" data-name="Контур 18477" d="M551.29,374.757l-1.44,3.769L553.811,383s1.416-7.5,2.437-9.11.5-2.413-.42-2.893Z" transform="translate(-549.85 -371)"/>
    </clipPath>
    <clipPath id="clip-path-30">
      <path id="Контур_18478" data-name="Контур 18478" d="M419.85,456.1a56.621,56.621,0,0,1,20.788,5.785c1.86-9.734,17.092-17.512,17.092-17.512l-9.614-24.953c.012,0-24.125,16.071-28.266,36.68" transform="translate(-419.85 -419.42)" fill="url(#linear-gradient)"/>
    </clipPath>
    <clipPath id="clip-path-31">
      <path id="Контур_18479" data-name="Контур 18479" d="M422.857,469.554h0c15.639,29.262,59.2-1.044,59.2-1.044l-3.5-6.673s-27.066,14.955-36.031,1.884a10.192,10.192,0,0,1-1.8-7.946,56.62,56.62,0,0,0-20.788-5.785,28.732,28.732,0,0,0,2.929,19.564" transform="translate(-419.339 -449.99)"/>
    </clipPath>
    <clipPath id="clip-path-32">
      <path id="Контур_18480" data-name="Контур 18480" d="M459.969,420.207a.856.856,0,0,0,.384,1.032c2.221,1.248,10.2,4.885,19.924-1.152a4,4,0,0,0,1.872-2.845l2.845-20.416-16.623-.156Z" transform="translate(-459.917 -396.67)"/>
    </clipPath>
    <clipPath id="clip-path-33">
      <path id="Контур_18481" data-name="Контур 18481" d="M464.44,384.651l6.613,18.292c9.65,5.629,20.764,6.229,21.977-.576s-7.6-23.777-7.6-23.777Z" transform="translate(-464.44 -378.59)"/>
    </clipPath>
    <clipPath id="clip-path-35">
      <path id="Контур_18482" data-name="Контур 18482" d="M481.643,371.876h0a.717.717,0,0,1-.984.132.686.686,0,0,1-.132-.132c-1.188-1.572-4.309-4.849-8.714-2.917-4.117,1.8-4.609,4.8-4.561,6.313a.687.687,0,0,1-.66.72h0a.682.682,0,0,1-.156-.012c-2.064-.42-7.045-.8-9.41,4.285-1.956,4.189-.732,6.577.384,7.754a.694.694,0,0,1-.3,1.152c-1.368.408-3.133,1.548-2.989,4.741.2,4.417,5.137,4.069,6.541,3.889a.668.668,0,0,1,.612.228c1.188,1.344,6.565,7.057,12.435,7.79a.7.7,0,0,0,.78-.624.647.647,0,0,0-.036-.3l-2.473-7.418a.7.7,0,0,1,.384-.864l1.26-.54a.712.712,0,0,0,.372-.912.7.7,0,0,0-.048-.1,18.606,18.606,0,0,1-2.449-5.317s-1.6-1.044,4.129-2.365,14.271-3.361,16.107-8.21c1.308-3.457-.732-10.79-4.825-10.79-1.5-.024-3.277.96-5.269,3.493" transform="translate(-454.113 -368.366)"/>
    </clipPath>
    <clipPath id="clip-path-36">
      <path id="Контур_18483" data-name="Контур 18483" d="M465.527,391.808c0,.036-.012.072-.012.108h0c-.5,3.685,5.7,5.4,8.8,4.057l-1.944-3.3s-3.169-2.22-5.209-2.22c-.048,0-.1-.012-.144-.012a1.518,1.518,0,0,0-1.488,1.368" transform="translate(-465.486 -390.44)"/>
    </clipPath>
    <clipPath id="clip-path-37">
      <path id="Контур_18484" data-name="Контур 18484" d="M499.459,434.348h0c-8.942.756-16.683,1.632-19.348,1.944a1.506,1.506,0,0,0-1.272,1.08L464.1,488.864a1.5,1.5,0,0,0,1.032,1.86h0a1.525,1.525,0,0,0,.408.06l34.207.324a1.5,1.5,0,0,0,1.212-.6c8.75-11.45,26.225-46.414,30.474-55.007a1.5,1.5,0,0,0-.672-2.016,1.582,1.582,0,0,0-.576-.156c-1.932-.168-4.213-.228-6.709-.228-7.129,0-16.059.576-24.029,1.26" transform="translate(-464.041 -433.1)"/>
    </clipPath>
    <linearGradient id="linear-gradient-13" x1="-5.818" y1="4.75" x2="-5.818" y2="4.75" xlink:href="#linear-gradient-5"/>
    <clipPath id="clip-path-38">
      <path id="Контур_18486" data-name="Контур 18486" d="M466.064,460.691h0c-.84,3,1.212,11.438,1.212,11.438a7.787,7.787,0,0,0,7.033-2.449c1.608-1.584,2.569-3.169,3.877-2.316a2.743,2.743,0,0,0,3.817-.624h0a2.55,2.55,0,0,0,.192-.3l-2.34-2.593c3.433,1.668,3.793-1.452,3.793-1.452l-2.521-1.956c3.889,1.2,4.345-2.3,4.381-2.617V457.8a78.334,78.334,0,0,0-11.654-3.109,9.714,9.714,0,0,0-1.44-.12c-4.213,0-5.605,3.409-6.349,6.121" transform="translate(-465.862 -454.57)"/>
    </clipPath>
    <clipPath id="clip-path-40">
      <path id="Контур_18487" data-name="Контур 18487" d="M797.275,385.606h0c-5.965,11.4,7.454,16.816,7.454,16.816s-11.654,22.841,5.929,38.528,32.719,4.537,32.719,4.537l9.794-31.062s-19.744,26.045-33.763,17.02-10.418-21.364-8.018-30.7a6.155,6.155,0,0,0-1.32-6.949,6.4,6.4,0,0,1-2.088-4.141s-2.5,2.881-1.116,4.993a2.248,2.248,0,0,1,.276,2.04c-.2-.1-.42-.2-.636-.3-4.441-1.944-6.553-7.442-7.43-10.586a.951.951,0,0,0-.924-.708h-.024a.94.94,0,0,0-.852.516" transform="translate(-795.747 -385.09)"/>
    </clipPath>
    <clipPath id="clip-path-41">
      <path id="Контур_18488" data-name="Контур 18488" d="M846.741,373.873h0s12.327,5.557-.66,21.076-.624,23.513-.624,23.513c-.528,18.784,26.069,15.267,26.069,15.267,9.35,9.1,25.169,3.829,28.29-3.661a8.117,8.117,0,0,0-3.481-10.8,15.345,15.345,0,0,0,11.126-14.511v-.48a1.846,1.846,0,0,0-.012-.264v-.072a30.618,30.618,0,0,0-3.661-13.467c-8.45-17.008-27.858-9.518-27.858-9.518,4.777-8.27-1.752-12.579-1.752-12.579-.516-9.566-10.646-7.91-10.646-7.91a28.927,28.927,0,0,0-6.337-.816c-13.623.012-10.454,14.223-10.454,14.223" transform="translate(-840.143 -359.65)"/>
    </clipPath>
    <clipPath id="clip-path-42">
      <path id="Контур_18489" data-name="Контур 18489" d="M855.222,405.75a27.757,27.757,0,0,0-7.814,1.116h0a4.3,4.3,0,0,0-2.341,1.728c-3.7,5.473-18.3,28.134-12.675,36.356,8.15,11.906,14.379,39.044,14.379,39.044,13.875,11.294,26.6-2.725,26.6-2.725-7.214-14.679,1.008-48.61,4.141-60.1a7.177,7.177,0,0,0-2.076-7.165,29.184,29.184,0,0,0-20.14-8.258h-.072" transform="translate(-831.117 -405.75)"/>
    </clipPath>
    <linearGradient id="linear-gradient-14" x1="-7.203" y1="3.383" x2="-7.203" y2="3.383" xlink:href="#linear-gradient-4"/>
    <clipPath id="clip-path-43">
      <path id="Контур_18490" data-name="Контур 18490" d="M847.42,390.153c.984,3.133,1.656,20.656,1.656,20.656a13.291,13.291,0,0,0,13.311,2.148c-.468-7.742-6.673-25.277-6.673-25.277Z" transform="translate(-847.42 -387.68)"/>
    </clipPath>
    <clipPath id="clip-path-44">
      <path id="Контур_18491" data-name="Контур 18491" d="M848.765,367.78h0s-16.228,22.7-6.529,29.3,21.245-9.542,21.245-9.542,3.769-12.423-.168-16.635c-2.593-2.773-8.054-3.241-11.5-3.241a30.162,30.162,0,0,0-3.049.12" transform="translate(-839.145 -367.659)"/>
    </clipPath>
    <clipPath id="clip-path-45">
      <path id="Контур_18492" data-name="Контур 18492" d="M854.849,363.28h0s-7.454,1.764-8.5,5.137,10.562,6.493,13.827,6.649l2.617,13.611s7.754-12.795,4.681-20.188c-1.932-4.645-6.409-5.509-9.482-5.509h-.1a15.352,15.352,0,0,0-3.049.3" transform="translate(-846.285 -362.98)"/>
    </clipPath>
    <clipPath id="clip-path-46">
      <path id="Контур_18493" data-name="Контур 18493" d="M856.81,383.525h0l.3,3.457c2.833,2.341,11.03-1.236,8.522-6a2.627,2.627,0,0,0-2.388-1.62c-2.845,0-6.433,4.165-6.433,4.165" transform="translate(-856.81 -379.36)"/>
    </clipPath>
    <clipPath id="clip-path-47">
      <path id="Контур_18495" data-name="Контур 18495" d="M827.966,534.617h0a8.536,8.536,0,0,0,.912,6.157l40.748,68.594a9.323,9.323,0,0,1,1.068,2.665c.744,3.217,2.292,11.114,1.488,18.28l-2.112,4.381,9.122-2.076,1.98-24.485-2.581-1.572a12.2,12.2,0,0,1-4.957-5.809c-3.685-8.954-12.843-31.747-15.2-42.849-2.677-12.627-16.7-22.877-16.7-22.877l2.461-5.821L831.243,518.39c.06,1.248-2.1,11.018-3.277,16.227" transform="translate(-827.75 -518.39)"/>
    </clipPath>
    <clipPath id="clip-path-48">
      <path id="Контур_18496" data-name="Контур 18496" d="M872.009,591.914h0c-.012,0-1.44,14.763-.948,20.524s-6.517,5.581-6.517,5.581a6.546,6.546,0,0,0-3.349,1.68,1.641,1.641,0,0,0,1.1,2.761,39.8,39.8,0,0,0,9.77-.552,2.988,2.988,0,0,0,2.413-2.76l1.008-17,6.205,7.838,1.032-.468s-4.921-7.8-5.509-10.85c-.5-2.653-1.8-7.082-4.141-7.082a2.285,2.285,0,0,0-1.08.3" transform="translate(-860.748 -591.59)"/>
    </clipPath>
    <linearGradient id="linear-gradient-15" x1="-46.367" y1="6.938" x2="-46.365" y2="6.938" xlink:href="#linear-gradient-5"/>
    <clipPath id="clip-path-49">
      <path id="Контур_18497" data-name="Контур 18497" d="M852.364,527.786Zm0,0c.012.648,1.44,61.4,1.632,70.071.192,8.714-1.38,28.026-10.106,33.8l3.8,2.809a51.111,51.111,0,0,0,9.4-11.811c5.209-8.726,6.793-10.322,6.793-10.322l-1.728-3.541a7.8,7.8,0,0,1-.636-4.993c1.884-9.134,8.186-39.524,9.9-46.078,2.028-7.73,2.172-18.04-4.885-26.682-3.145-3.853-6.3-4.909-8.822-4.909a9.622,9.622,0,0,0-5.353,1.656" transform="translate(-843.89 -526.13)"/>
    </clipPath>
    <clipPath id="clip-path-50">
      <path id="Контур_18498" data-name="Контур 18498" d="M849.835,616.692h0a4.527,4.527,0,0,1-5.221.828,8.735,8.735,0,0,0-3.949,2.833,1.589,1.589,0,0,0,.3,2.232,1.623,1.623,0,0,0,.96.324l8.114.072a5.71,5.71,0,0,0,5.353-3.589c1.428-3.565,3.877-8.8,6.733-11.114L860.637,622.5a.538.538,0,0,0,1.068.132c.288-2.04,1.5-10.25,2.5-12.374,1.14-2.437,4.837-12.663,0-13.539-.012.012-12.051,17.608-14.367,19.972" transform="translate(-840.336 -596.72)"/>
    </clipPath>
    <linearGradient id="linear-gradient-16" x1="-35.151" y1="7.833" x2="-35.149" y2="7.833" xlink:href="#linear-gradient-5"/>
    <clipPath id="clip-path-51">
      <path id="Контур_18499" data-name="Контур 18499" d="M845.652,466.1h0s1.824,5.821-.984,15.423l-17.416,60.8a1.879,1.879,0,0,0,1.176,2.292c5.209,1.872,22.337,7.154,45.706,5.545a2.656,2.656,0,0,0,2.425-2.064c1.536-6.937,6.793-30.582,7.874-35.443,4.117-18.52,8.726-38.492-11.522-50.567-9.338,4-18.04,6.349-27.258,4.009" transform="translate(-827.178 -462.09)"/>
    </clipPath>
    <linearGradient id="linear-gradient-17" x1="-6.259" y1="2.62" x2="-6.259" y2="2.62" xlink:href="#linear-gradient-5"/>
    <clipPath id="clip-path-52">
      <path id="Контур_18501" data-name="Контур 18501" d="M865.158,428.351h0a10.1,10.1,0,0,0,2.965,4.033c22.457,18.688,17.019,31.014,8.21,35-9.038,4.093-6.073-.96-12.459-.984-2.953-.012-5.605,2.28-7.081,4.573-1.716,2.677-1.824,5.353,1.116,4.357,5.461-1.836,10.058,3.3,10.058,3.3s33.871-2.388,28.95-24.893-24.725-38.96-24.725-38.96a8.892,8.892,0,0,0-4.381-1.416c-4.657,0-6.085,6.313-2.652,14.991" transform="translate(-855.583 -413.36)"/>
    </clipPath>
    <clipPath id="clip-path-54">
      <path id="Контур_18502" data-name="Контур 18502" d="M714.584,599.24s-22.853,9.842-21.544,20.14c0,0,23.621-4.537,27.846-11.282s1.9-10.658,1.9-10.658Z" transform="translate(-692.985 -597.44)"/>
    </clipPath>
    <linearGradient id="linear-gradient-18" x1="-17.385" y1="4.987" x2="-17.384" y2="4.987" gradientUnits="objectBoundingBox">
      <stop offset="0" stop-color="#005b0b"/>
      <stop offset="0.498" stop-color="#005b0b"/>
      <stop offset="1" stop-color="#108e16"/>
    </linearGradient>
    <linearGradient id="linear-gradient-19" x1="0.187" y1="0.357" x2="0.81" y2="0.642" xlink:href="#linear-gradient-5"/>
    <clipPath id="clip-path-56">
      <path id="Контур_18504" data-name="Контур 18504" d="M707.45,592.639l2.244,8.114a3.861,3.861,0,0,0,3.757,2.821,8.473,8.473,0,0,0,2.893-.444,3.323,3.323,0,0,0,2.1-3.517L717.28,589.59Z" transform="translate(-707.45 -589.59)"/>
    </clipPath>
    <clipPath id="clip-path-57">
      <path id="Контур_18505" data-name="Контур 18505" d="M706.295,535.78h0c-20.9,12.195,1.068,70.719,1.068,70.719s5.461,1.176,13.323-3.025c0,0-11.222-42.849,8.27-50.3,21.917-8.378,44.589-6.337,44.589-6.337l-4.2-19.984-.12-1.32s-2.46-.12-6.481-.12c-12.6,0-40.593,1.116-56.448,10.37" transform="translate(-697.276 -525.41)"/>
    </clipPath>
    <linearGradient id="linear-gradient-20" x1="-5.433" y1="2.238" x2="-5.433" y2="2.238" xlink:href="#linear-gradient-5"/>
    <clipPath id="clip-path-58">
      <path id="Контур_18506" data-name="Контур 18506" d="M719.324,606.262c-2.292,0-16.311,5.8-21.052,6.841v-.012a18.791,18.791,0,0,0-8.462,4.549c2.316,2.592,6.361,5.269,13.083,4.849,9.146-.576,17.008-5.8,20.656-8.642a5.7,5.7,0,0,0,1.008-4.3s-3.049-3.229-5.2-3.3Z" transform="translate(-689.81 -606.25)"/>
    </clipPath>
    <linearGradient id="linear-gradient-21" x1="-17.594" y1="5.022" x2="-17.593" y2="5.022" xlink:href="#linear-gradient-5"/>
    <clipPath id="clip-path-59">
      <path id="Контур_18507" data-name="Контур 18507" d="M703.244,621.22h0c-6.721.432-10.778-2.244-13.083-4.837-2.22,2.16-2.965,4.429-.54,5.365,3.025,1.176,18.3,1.932,27.546-3.289a17.885,17.885,0,0,0,6.745-5.869h0c-3.661,2.845-11.51,8.066-20.644,8.63" transform="translate(-688.117 -612.59)"/>
    </clipPath>
    <linearGradient id="linear-gradient-22" x1="-20.525" y1="7.513" x2="-20.523" y2="7.513" gradientUnits="objectBoundingBox">
      <stop offset="0" stop-color="#50ff50"/>
      <stop offset="1" stop-color="#64e041"/>
    </linearGradient>
    <clipPath id="clip-path-60">
      <path id="Контур_18508" data-name="Контур 18508" d="M712.492,609.066a2.479,2.479,0,0,0,.96,3.361h0a10.086,10.086,0,0,0,2.533.888,3.812,3.812,0,0,0,3.541-1.068c1.932-1.98,5.281-5.533,5.593-6.721l-7.73-5.365Z" transform="translate(-712.182 -600.16)"/>
    </clipPath>
    <clipPath id="clip-path-61">
      <path id="Контур_18509" data-name="Контур 18509" d="M763.092,525.247l1.068,6.6c.588,3.625.324,7.165-3.013,8.7-11.666,5.365-19.876,17.752-25.493,26.357-6.481,9.938-22.025,50.795-22.025,50.795,2.184,3.685,9.662,6.109,9.662,6.109,13.095-7.61,27.486-34.1,35.5-47.6s31.278-16.984,41.889-22.3,6.938-31.338,6.938-31.338Z" transform="translate(-713.63 -522.57)"/>
    </clipPath>
    <linearGradient id="linear-gradient-23" x1="-6.236" y1="2.294" x2="-6.236" y2="2.294" xlink:href="#linear-gradient-5"/>
    <clipPath id="clip-path-62">
      <path id="Контур_18510" data-name="Контур 18510" d="M710.555,504.434h0a21.233,21.233,0,0,1-3.145,12.531,24.151,24.151,0,0,0,13.311,1.944c20.512-2.544,34.1-26.441,34.1-26.441L732.027,465.81c.048,1.02-6.613,42.873-21.472,38.624" transform="translate(-707.41 -465.81)"/>
    </clipPath>
    <linearGradient id="linear-gradient-24" x1="-8.366" y1="3.917" x2="-8.366" y2="3.917" xlink:href="#linear-gradient-4"/>
    <clipPath id="clip-path-63">
      <path id="Контур_18511" data-name="Контур 18511" d="M689.325,486.706h0c-6.481,2.665-13.395,14.163-13.395,14.163s2.473,3.013,5.365,1.188,10.346-6.6,10.346-6.6-2.521,5.365-2.5,6.361,3.253.84,3.421-1.872c.084-1.38,1.5-2.389,2.88-3.049a2.786,2.786,0,0,1,3.673,1.236c1.92,3.709,6.589,11.126,14.607,14.787a21.408,21.408,0,0,0,3.145-12.531c-4.045-1.152-9.134-4.477-15.555-11.042a13.213,13.213,0,0,0-8.234-3.4,10.042,10.042,0,0,0-3.757.756" transform="translate(-675.93 -485.95)"/>
    </clipPath>
    <clipPath id="clip-path-64">
      <path id="Контур_18512" data-name="Контур 18512" d="M730.844,463.115h0s-4.969,6.3-2.641,13.407,30.978,45.537,32.095,63.589c0,0,19.588,11.534,45.009.1,0,0,8.522-47.65-6.229-88.11,0,0-5.509-3.757-17.728-3.757-11.054,0-27.594,3.073-50.506,14.775" transform="translate(-727.583 -448.34)"/>
    </clipPath>
    <linearGradient id="linear-gradient-25" x1="-4.605" y1="2.341" x2="-4.605" y2="2.341" xlink:href="#linear-gradient-4"/>
    <clipPath id="clip-path-65">
      <path id="Контур_18513" data-name="Контур 18513" d="M739.38,439l4.093,17.272a6.792,6.792,0,0,0,4.621,4.921c7.742,2.365,12.291-1.3,14.463-4.021a4.4,4.4,0,0,0,.456-4.741l-7.9-15.471Z" transform="translate(-739.38 -436.96)"/>
    </clipPath>
    <clipPath id="clip-path-66">
      <path id="Контур_18514" data-name="Контур 18514" d="M779.91,477.864s24.857,18.232,23.5,27.642c4.657,1.764,11.474,6.049,16.491,16.347a19.312,19.312,0,0,0,6.157-8.894c9.974-27.642-37.448-61.489-37.448-61.489Z" transform="translate(-779.91 -451.47)"/>
    </clipPath>
    <linearGradient id="linear-gradient-26" x1="-7.672" y1="3.392" x2="-7.672" y2="3.392" xlink:href="#linear-gradient-4"/>
    <clipPath id="clip-path-67">
      <path id="Контур_18515" data-name="Контур 18515" d="M808.05,498.4h0c-5.821,8.558-33.943.708-33.943.708-18.364-1.92-21.076,19.768-21.076,19.768,3.3,1.776,5.929-1.308,8.222-4.381,1.848-2.5,3.481-4.993,5.041-4.909,2.4.132,6.709-1.068,9.194-1.848a4.92,4.92,0,0,1,3.709.312c7,3.529,32.731,15.3,46.078,4.8-5.017-10.3-11.834-14.583-16.491-16.347a4.6,4.6,0,0,1-.732,1.9" transform="translate(-753.03 -496.5)"/>
    </clipPath>
    <clipPath id="clip-path-68">
      <path id="Контур_18516" data-name="Контур 18516" d="M748.562,415.342a2.54,2.54,0,0,0-1.716.66h-.012c-.252.216-10.67,18.412-15.963,27.678a5.449,5.449,0,0,0,2.028,7.442,3.508,3.508,0,0,0,.564.276l2.292.984c3.133,1.344,9.89,2.473,12.543.324l16.743-17.68s-10.358-19.7-16.479-19.7v.012" transform="translate(-730.148 -415.33)"/>
    </clipPath>
    <clipPath id="clip-path-69">
      <path id="Контур_18517" data-name="Контур 18517" d="M739.811,414.064h0c-1.656,4.873,5.485,8.666,10.058,9.434,3.469.588,5.161,4.6,5.773,6.481a2.068,2.068,0,0,1-.24,1.776l-5.089,7.742c1.4,1.764,2.64,3.625,3.865,5.509.456-.492.864-.9,1.176-1.188,2.208-2.028,6.145-.984,7.766-.42a2.03,2.03,0,0,0,1.608-.12c1.764-.912,5.317-3.469,2.4-8.306a2.081,2.081,0,0,1,.7-2.857.261.261,0,0,0,.06-.036c2.052-1.152,4.525-3.493,2.6-7.622-1.956-4.2-5.809-4.561-8.306-4.3a2.086,2.086,0,0,1-2.208-1.5,1.63,1.63,0,0,0-1.452-1.176,2.038,2.038,0,0,1-1.656-2.376,1.144,1.144,0,0,1,.048-.192,6.2,6.2,0,0,0-3.1-7.442,8.389,8.389,0,0,0-4.345-1.284c-4.585-.024-8.39,4.141-9.662,7.874" transform="translate(-739.567 -406.19)"/>
    </clipPath>
    <clipPath id="clip-path-70">
      <path id="Контур_18518" data-name="Контур 18518" d="M750.18,442.594h0s2.713,5.281,8.642.348c4.777-3.961,2-7.79-1.692-8.258a2.528,2.528,0,0,0-.3-.024c-3.565.012-6.65,7.934-6.65,7.934" transform="translate(-750.18 -434.66)"/>
    </clipPath>
    <clipPath id="clip-path-71">
      <path id="Контур_18519" data-name="Контур 18519" d="M686.283,508.622a2.935,2.935,0,0,0-2.893,2.941h0a2.935,2.935,0,0,0,2.929,2.941h0l65.678.072h.156a2.947,2.947,0,1,0-.06-5.893h-.084l-65.678-.072h-.048Z" transform="translate(-683.39 -508.61)"/>
    </clipPath>
    <linearGradient id="linear-gradient-27" x1="-11.015" y1="7.098" x2="-11.015" y2="7.098" xlink:href="#linear-gradient-5"/>
    <clipPath id="clip-path-72">
      <path id="Контур_18520" data-name="Контур 18520" d="M637.369,463.89A4.38,4.38,0,0,0,633,468.271a4.487,4.487,0,0,0,.3,1.6l19.612,49.618a6.33,6.33,0,0,0,5.893,4.009h67.982L701.5,469.867a10.417,10.417,0,0,0-9.434-5.977Z" transform="translate(-633 -463.89)"/>
    </clipPath>
    <linearGradient id="linear-gradient-28" x1="-4.79" y1="2.709" x2="-4.79" y2="2.709" xlink:href="#linear-gradient-5"/>
  </defs>
  <g id="Безымянный-1" transform="translate(-413.82 -150.25)">
    <g id="Сгруппировать_8499" transform="translate(413.82 150.25)">
      <g id="Сгруппировать_8500" data-name="Сгруппировать 8500">
        <g id="Сгруппировать_8498" clip-path="url(#clip-path)">
          <path id="Прямоугольник_883-2" data-name="Прямоугольник_883" d="M171.37,433.822,829.755-96.1l529,657.245L700.368,1091.067Z" transform="translate(-462.371 -199.582)" fill="url(#linear-gradient-3)"/>
        </g>
      </g>
    </g>
    <g id="Сгруппировать_8501" transform="translate(413.832 150.262)">
      <g id="Сгруппировать_8501-2" data-name="Сгруппировать 8501">
        <g id="Сгруппировать_8500-2" data-name="Сгруппировать_8500" clip-path="url(#clip-path-2)">
          <path id="Контур_18464-2" data-name="Контур_18464" d="M880.542,423.066c0,122.57-99.357,221.926-221.926,221.926S436.69,545.636,436.69,423.066,536.047,201.14,658.616,201.14s221.926,99.369,221.926,221.926" transform="translate(-409.252 -140.071)" fill="#bdf9c0"/>
          <path id="Контур_18465-2" data-name="Контур_18465" d="M463.78,417.641c0,104.614,84.8,189.411,189.411,189.411S842.6,522.255,842.6,417.641,757.805,228.23,653.191,228.23h0c-104.614,0-189.411,84.81-189.411,189.411" transform="translate(-403.827 -134.647)" fill="#4bb665"/>
        </g>
      </g>
    </g>
    <g id="Сгруппировать_8503" transform="translate(473.784 243.845)">
      <g id="Сгруппировать_8502" data-name="Сгруппировать 8502">
        <g id="Сгруппировать_8502-2" data-name="Сгруппировать_8502" clip-path="url(#clip-path-3)">
          <rect id="Прямоугольник_885-2" data-name="Прямоугольник_885" width="530.714" height="530.714" transform="matrix(0.602, -0.799, 0.799, 0.602, -182.026, 241.706)" fill="#4bb665"/>
        </g>
      </g>
    </g>
    <g id="Сгруппировать_8505" transform="translate(413.832 150.262)">
      <g id="Сгруппировать_8503-2" data-name="Сгруппировать 8503">
        <g id="Сгруппировать_8504" clip-path="url(#clip-path-2)">
          <path id="Контур_18467-2" data-name="Контур_18467" d="M654.763,618.117c-109.667,0-198.893-89.227-198.893-198.893S545.1,220.33,654.763,220.33s198.905,89.227,198.905,198.893S764.442,618.117,654.763,618.117m0-388.3c-104.446,0-189.411,84.966-189.411,189.411s84.966,189.411,189.411,189.411,189.411-84.966,189.411-189.411S759.209,229.812,654.763,229.812" transform="translate(-405.412 -136.229)" fill="#fff"/>
        </g>
      </g>
    </g>
    <g id="Сгруппировать_8507" transform="translate(547.72 317.781)">
      <g id="Сгруппировать_8504-2" data-name="Сгруппировать 8504">
        <g id="Сгруппировать_8506" clip-path="url(#clip-path-5)">
          <rect id="Прямоугольник_887-2" data-name="Прямоугольник_887" width="323.419" height="323.419" transform="matrix(0.602, -0.799, 0.799, 0.602, -110.998, 147.325)" fill="#4bb665"/>
        </g>
      </g>
    </g>
    <g id="Сгруппировать_8509" transform="translate(413.832 150.262)">
      <g id="Сгруппировать_8505-2" data-name="Сгруппировать 8505">
        <g id="Сгруппировать_8508" clip-path="url(#clip-path-2)">
          <path id="Контур_18469-2" data-name="Контур_18469" d="M642.428,531.848A124.964,124.964,0,1,1,767.4,406.878a124.966,124.966,0,0,1-124.97,124.97h0m0-230.94A105.982,105.982,0,1,0,748.41,406.89h0A105.977,105.977,0,0,0,642.428,300.908" transform="translate(-393.076 -123.895)" fill="#fff"/>
        </g>
      </g>
    </g>
    <g id="Сгруппировать_8511" transform="translate(618.451 388.524)">
      <g id="Сгруппировать_8506-2" data-name="Сгруппировать 8506" transform="translate(0)">
        <g id="Сгруппировать_8510" clip-path="url(#clip-path-7)">
          <path id="Прямоугольник_889-2" data-name="Прямоугольник_889" d="M574.99,438.687,587.6,339.45l99.237,12.6-12.615,99.237Z" transform="translate(-586.176 -350.636)" fill="url(#linear-gradient-4)"/>
        </g>
      </g>
    </g>
    <g id="Сгруппировать_8513" transform="translate(413.832 150.262)">
      <g id="Сгруппировать_8507-2" data-name="Сгруппировать 8507">
        <g id="Сгруппировать_8512" clip-path="url(#clip-path-2)">
          <path id="Контур_18471-2" data-name="Контур_18471" d="M630.637,449.315a54.227,54.227,0,1,1,54.227-54.227,54.231,54.231,0,0,1-54.227,54.227h0m0-89.479a35.251,35.251,0,1,0,35.251,35.251h0a35.252,35.252,0,0,0-35.251-35.251" transform="translate(-381.273 -112.092)" fill="#fff"/>
        </g>
      </g>
    </g>
    <g id="Сгруппировать_8515" transform="translate(696.523 222.115)">
      <g id="Сгруппировать_8508-2" data-name="Сгруппировать 8508" transform="translate(0)">
        <g id="Сгруппировать_8514" transform="translate(0)" clip-path="url(#clip-path-9)">
          <path id="Прямоугольник_891-2" data-name="Прямоугольник_891" d="M581.77,272.677,796.963,142.51,927.142,357.7,711.949,487.882Z" transform="translate(-662.891 -223.665)" fill="url(#linear-gradient-5)"/>
        </g>
      </g>
    </g>
    <g id="Сгруппировать_8517" transform="translate(662.275 388.764)">
      <g id="Сгруппировать_8509-2" data-name="Сгруппировать 8509">
        <g id="Сгруппировать_8516" clip-path="url(#clip-path-10)">
          <path id="Прямоугольник_893-2" data-name="Прямоугольник_893" d="M599.82,374.008l56.4-46.738,46.558,56.2L646.366,430.2Z" transform="translate(-625.029 -353.315)" fill="url(#linear-gradient-6)"/>
        </g>
      </g>
    </g>
    <g id="Сгруппировать_8539" transform="translate(413.832 150.262)">
      <g id="Сгруппировать_8518" data-name="Сгруппировать 8518">
        <g id="Сгруппировать_8538" clip-path="url(#clip-path-2)">
          <path id="Контур_18473-2" data-name="Контур_18473" d="M810.2,214.1l24,2.389-32.959,32.959a50.919,50.919,0,0,1-41.061,14.667Z" transform="translate(-344.471 -137.476)" fill="#93f9a2"/>
          <path id="Контур_18474-2" data-name="Контур_18474" d="M806.316,214.185l-2.388-24-32.959,32.959A50.919,50.919,0,0,0,756.3,264.2Z" transform="translate(-345.3 -142.266)" fill="#93f9a2"/>
          <g id="Сгруппировать_8522" transform="translate(14.595 16.119)" opacity="0.3">
            <g id="Сгруппировать_8521">
              <g id="Сгруппировать_8511-2" data-name="Сгруппировать 8511">
                <g id="Сгруппировать_8520" clip-path="url(#clip-path-12)">
                  <g id="Сгруппировать_8519">
                    <g id="Сгруппировать_8510-2" data-name="Сгруппировать 8510">
                      <g id="Сгруппировать_8518-2" data-name="Сгруппировать_8518" clip-path="url(#clip-path-12)">
                        <path id="Контур_18475-2" data-name="Контур_18475" d="M542.649,186.257a1.71,1.71,0,0,1-2.425,0h0c-1.3-1.308-2.677-2.569-4.093-3.769a1.707,1.707,0,0,1-.228-2.389l.024-.024a1.726,1.726,0,0,1,2.424-.2c1.488,1.26,2.941,2.593,4.309,3.961a1.721,1.721,0,0,1-.012,2.425h0m-13.815-9.1c-1.56-.984-3.181-1.92-4.825-2.773a1.718,1.718,0,0,1,1.488-3.1h0l.1.048c1.716.888,3.433,1.872,5.077,2.917a1.715,1.715,0,0,1,.54,2.365,1.448,1.448,0,0,1-.12.168,1.74,1.74,0,0,1-2.256.372M515.728,170.8c-1.74-.612-3.529-1.164-5.317-1.62a1.719,1.719,0,0,1,.78-3.349l.072.024c1.884.492,3.769,1.068,5.605,1.7a1.718,1.718,0,0,1-1.14,3.241m-14.211-3.277c-1.836-.2-3.709-.348-5.545-.4a1.722,1.722,0,1,1,.012-3.445h.084c1.944.06,3.913.192,5.845.42a1.722,1.722,0,0,1-.4,3.421m-14.583-.024c-1.836.2-3.685.492-5.5.84a1.715,1.715,0,0,1-.744-3.349.2.2,0,0,1,.084-.012c1.908-.372,3.853-.672,5.785-.888a1.72,1.72,0,0,1,.456,3.409h-.084m-14.211,3.2c-1.74.6-3.481,1.3-5.173,2.04a1.717,1.717,0,0,1-1.4-3.133c1.776-.792,3.613-1.512,5.449-2.148a1.718,1.718,0,0,1,1.128,3.241m-43.809,46.342a1.714,1.714,0,0,1-1.224-2.088h0c.492-1.884,1.068-3.769,1.716-5.605a1.72,1.72,0,0,1,3.241,1.152h0c-.624,1.74-1.164,3.529-1.632,5.317a1.711,1.711,0,0,1-2.1,1.224h0m30.666-40.076c-1.56.972-3.109,2.028-4.585,3.145a1.715,1.715,0,1,1-2.052-2.749h0c1.56-1.164,3.181-2.28,4.825-3.313a1.718,1.718,0,1,1,1.872,2.881h0l-.06.036m-25.637,25.985a1.726,1.726,0,0,1-.732-2.316c.9-1.716,1.884-3.433,2.929-5.077a1.721,1.721,0,1,1,2.977,1.728c-.012.024-.024.036-.036.06a.265.265,0,0,1-.036.06c-1,1.56-1.92,3.181-2.785,4.825a1.208,1.208,0,0,1-.192.288,1.731,1.731,0,0,1-2.124.432m14.223-16.924c-1.308,1.3-2.581,2.677-3.769,4.093a1.716,1.716,0,0,1-2.641-2.184l.012-.024c1.26-1.488,2.593-2.941,3.973-4.309a1.719,1.719,0,0,1,2.545,2.3.569.569,0,0,0-.12.12" transform="translate(-425.661 -163.692)" fill="#93f9a2"/>
                        <path id="Контур_18476-2" data-name="Контур_18476" d="M429.047,218.491a1.836,1.836,0,0,0,.384-.948q.09-1.332.252-2.665a1.715,1.715,0,0,0-3.409-.384h0c-.108.936-.192,1.872-.264,2.8a1.709,1.709,0,0,0,3.037,1.2" transform="translate(-425.987 -153.822)" fill="#93f9a2"/>
                      </g>
                    </g>
                  </g>
                </g>
              </g>
            </g>
          </g>
          <g id="Сгруппировать_8527" transform="translate(29.622 84.858)" opacity="0.3">
            <g id="Сгруппировать_8526">
              <g id="Сгруппировать_8513-2" data-name="Сгруппировать 8513">
                <g id="Сгруппировать_8525" clip-path="url(#clip-path-14)">
                  <g id="Сгруппировать_8524" transform="translate(0.024)">
                    <g id="Сгруппировать_8512-2" data-name="Сгруппировать 8512">
                      <g id="Сгруппировать_8523" clip-path="url(#clip-path-15)">
                        <path id="Контур_18477-2" data-name="Контур_18477" d="M443.38,259.688a1.727,1.727,0,0,0-.06-2.232c-.588-.66-1.176-1.344-1.74-2.028a1.717,1.717,0,0,0-2.689,2.136l.048.06c.6.72,1.212,1.44,1.836,2.136a1.712,1.712,0,0,0,2.424.132h0c.06-.06.12-.132.18-.2" transform="translate(-438.531 -214.186)" fill="#93f9a2"/>
                        <path id="Контур_18478-2" data-name="Контур_18478" d="M541.553,264.636a1.719,1.719,0,0,1-2.6-2.244l.012-.012c.012-.012.024-.024.024-.036,1.2-1.344,2.377-2.761,3.481-4.225a1.73,1.73,0,0,1,2.412-.312,1.7,1.7,0,0,1,.324,2.376c-.48.636-.972,1.26-1.464,1.872-.708.876-1.44,1.74-2.185,2.581M548,253.017a1.728,1.728,0,0,1-.66-2.34c.888-1.584,1.728-3.229,2.485-4.885a1.718,1.718,0,1,1,3.193,1.272c-.024.06-.048.108-.072.168-.792,1.74-1.668,3.469-2.6,5.137a1.708,1.708,0,0,1-.168.24,1.748,1.748,0,0,1-2.172.408m-13.155,18.136c-1.452,1.236-2.989,2.424-4.549,3.541a1.716,1.716,0,0,1-2.04-2.761h0l.048-.024c1.476-1.056,2.941-2.184,4.321-3.361a1.718,1.718,0,0,1,2.449,2.389c-.072.072-.156.156-.228.216M554.1,239.61a1.71,1.71,0,0,1-1.152-2.136h0c.516-1.74.972-3.529,1.344-5.305a1.718,1.718,0,0,1,3.361.708c-.4,1.872-.864,3.757-1.416,5.581a1.729,1.729,0,0,1-2.136,1.152h0m-31.783,39.968c-1.692.888-3.445,1.7-5.209,2.449a1.719,1.719,0,0,1-1.332-3.169c1.68-.708,3.349-1.488,4.945-2.328a1.731,1.731,0,0,1,2.328.7,1.708,1.708,0,0,1-.672,2.3.061.061,0,0,1-.06.048m-14.055,5.485c-1.848.492-3.745.912-5.617,1.26a1.716,1.716,0,1,1-.852-3.325c.048-.012.108-.024.168-.036l.084-.012c1.788-.324,3.589-.72,5.341-1.188a1.72,1.72,0,0,1,.972,3.3h-.1m-14.919,2.268c-1.908.084-3.853.084-5.761,0a1.718,1.718,0,0,1,.144-3.433c1.812.072,3.661.072,5.473,0a1.718,1.718,0,0,1,.144,3.433m-15.063-1.02c-1.884-.336-3.781-.768-5.617-1.26a1.721,1.721,0,0,1,.84-3.337l.048.012c1.752.468,3.553.876,5.341,1.2a1.718,1.718,0,1,1-.516,3.4.073.073,0,0,1-.048-.012h-.048m-14.487-4.321c-1.764-.744-3.5-1.572-5.2-2.473a1.716,1.716,0,0,1,1.6-3.037c1.608.852,3.277,1.632,4.945,2.341a1.722,1.722,0,1,1-1.26,3.2l-.084-.036m-13.167-7.382c-1.14-.816-2.28-1.68-3.373-2.569-.4-.324-.78-.648-1.176-.972a1.7,1.7,0,0,1-.228-2.388h0l.024-.024a1.726,1.726,0,0,1,2.424-.2h0c.372.312.744.624,1.116.924,1.032.84,2.112,1.668,3.2,2.436a1.725,1.725,0,0,1,.408,2.388v.012a.365.365,0,0,0-.06.084,1.723,1.723,0,0,1-2.34.312" transform="translate(-437.143 -218.978)" fill="#93f9a2"/>
                        <path id="Контур_18479-2" data-name="Контур_18479" d="M540.2,226.485a1.875,1.875,0,0,0,.384-.96c.06-.924.108-1.872.132-2.809a1.717,1.717,0,0,0-3.433-.084c-.024.888-.072,1.788-.132,2.677a1.728,1.728,0,0,0,1.6,1.836,1.772,1.772,0,0,0,1.452-.66" transform="translate(-418.782 -220.952)" fill="#93f9a2"/>
                      </g>
                    </g>
                  </g>
                </g>
              </g>
            </g>
          </g>
          <path id="Контур_18480-2" data-name="Контур_18480" d="M540.4,212.968a.818.818,0,0,0-.684-.636l-9.686-1.236a42.491,42.491,0,0,0-7.754-11.4l2.4-9.458a.786.786,0,0,0-.336-.864l-9.794-6.421a.793.793,0,0,0-.936.036l-7.718,5.977a42.768,42.768,0,0,0-13.551-2.569l-4.993-8.39a.79.79,0,0,0-.852-.372l-11.474,2.389a.818.818,0,0,0-.636.684l-1.236,9.686a42.491,42.491,0,0,0-11.4,7.754l-9.458-2.4a.786.786,0,0,0-.864.336L445,205.875a.813.813,0,0,0,.036.936l5.977,7.718a42.768,42.768,0,0,0-2.569,13.551l-8.39,4.993a.79.79,0,0,0-.372.852l2.388,11.474a.818.818,0,0,0,.684.636l9.686,1.236a42.492,42.492,0,0,0,7.754,11.4l-2.4,9.458a.786.786,0,0,0,.336.864l9.794,6.421a.813.813,0,0,0,.936-.036l7.717-5.977a42.77,42.77,0,0,0,13.551,2.569l4.993,8.39a.79.79,0,0,0,.852.372l11.474-2.389a.818.818,0,0,0,.636-.684l1.236-9.686a42.491,42.491,0,0,0,11.4-7.754l9.458,2.4a.786.786,0,0,0,.864-.336l6.421-9.794a.793.793,0,0,0-.036-.936l-5.977-7.718a42.772,42.772,0,0,0,2.569-13.551l8.39-4.993a.808.808,0,0,0,.372-.852Z" transform="translate(-408.657 -144.782)" fill="#93f9a2"/>
          <path id="Контур_18481-2" data-name="Контур_18481" d="M492.563,231.211a11.752,11.752,0,1,1,1.188-1.26,14.739,14.739,0,0,1-1.188,1.26m-17-9.062a9.024,9.024,0,1,0,2.9-6.265,8.743,8.743,0,0,0-.912.972,9,9,0,0,0-1.992,5.293" transform="translate(-402.016 -138.143)" fill="#bdf9c0"/>
          <path id="Контур_18482-2" data-name="Контур_18482" d="M509.721,243.718a28.547,28.547,0,0,0,1.752-2.4c.168-.264.336-.528.5-.8a27.866,27.866,0,0,0,2.088-4.141l.024-.06.06-.168c.048-.108.084-.216.132-.324a.691.691,0,0,0-.2-.78.717.717,0,0,0-.18-.108.692.692,0,0,0-.888.4,27.605,27.605,0,0,1-35.683,15.831,27.233,27.233,0,0,1-5.2-2.665,26.108,26.108,0,0,1-2.292-1.68,27.59,27.59,0,1,1,42.249-33.439.683.683,0,0,0,.912.312.7.7,0,0,0,.324-.912h0a28.964,28.964,0,1,0-44.349,35.1,28.56,28.56,0,0,0,2.4,1.752,28.957,28.957,0,0,0,38.348-5.905" transform="translate(-404.927 -141.012)" fill="#bdf9c0"/>
          <g id="Сгруппировать_8532" transform="translate(125.87 0.468)" opacity="0.3">
            <g id="Сгруппировать_8531">
              <g id="Сгруппировать_8515-2" data-name="Сгруппировать 8515">
                <g id="Сгруппировать_8530" clip-path="url(#clip-path-16)">
                  <g id="Сгруппировать_8529" transform="translate(0.012)">
                    <g id="Сгруппировать_8514-2" data-name="Сгруппировать 8514">
                      <g id="Сгруппировать_8528" clip-path="url(#clip-path-16)">
                        <path id="Контур_18483-2" data-name="Контур_18483" d="M584.18,168.849a1.063,1.063,0,0,0,.048-1.272c-.516-.744-1.056-1.476-1.608-2.184a1.056,1.056,0,0,0-1.488-.216,1.067,1.067,0,0,0-.216,1.488h0l.036.048c.528.672,1.044,1.38,1.536,2.088a1.074,1.074,0,0,0,1.476.276c.072-.084.144-.156.216-.228" transform="translate(-506.295 -147.784)" fill="#93f9a2"/>
                        <path id="Контур_18484-2" data-name="Контур_18484" d="M591.29,165.531a1.05,1.05,0,0,1-1.5,0c-1.056-1.044-2.16-2.04-3.313-2.977-.24-.192-.48-.384-.732-.588a1.055,1.055,0,0,1-.192-1.488,1.1,1.1,0,0,1,1.488-.192c.264.2.516.408.768.612a44.972,44.972,0,0,1,3.469,3.121,1.052,1.052,0,0,1,.072,1.416.19.19,0,0,1-.06.1m-10-6.6a43.01,43.01,0,0,0-4.789-2.473,1.062,1.062,0,0,1,.852-1.944,46.076,46.076,0,0,1,5.017,2.593,1.058,1.058,0,1,1-.984,1.872.711.711,0,0,0-.1-.048m-9.83-4.345a43.2,43.2,0,0,0-5.245-1.224,1.06,1.06,0,0,1,.36-2.088,43.679,43.679,0,0,1,5.509,1.3,1.056,1.056,0,0,1-.624,2.016m-10.6-1.764a44.873,44.873,0,0,0-5.389.1,1.06,1.06,0,0,1-.168-2.112,49.121,49.121,0,0,1,5.641-.108,1.05,1.05,0,0,1,1.032,1.08,1.065,1.065,0,0,1-1.08,1.032h0l-.036.012m-10.718.852a43.134,43.134,0,0,0-5.2,1.4,1.076,1.076,0,0,1-1.332-.7,1.059,1.059,0,0,1,.648-1.308,47.424,47.424,0,0,1,5.449-1.476,1.06,1.06,0,0,1,.432,2.076h0m-10.19,3.433a43.8,43.8,0,0,0-4.693,2.629,1.079,1.079,0,0,1-1.464-.348,1.054,1.054,0,0,1,.312-1.428,46.029,46.029,0,0,1,4.921-2.761,1.061,1.061,0,0,1,.924,1.908m-9.038,5.821a43.827,43.827,0,0,0-3.913,3.7,1.061,1.061,0,1,1-1.548-1.452,43.2,43.2,0,0,1,4.1-3.877,1.064,1.064,0,1,1,1.392,1.608l-.036.024m-11.666,12.819a1.05,1.05,0,0,1-.408-1.44,43.737,43.737,0,0,1,2.6-4.153l.432-.612a1.065,1.065,0,0,1,1.716,1.26c-.132.192-.276.372-.408.576a42.339,42.339,0,0,0-2.484,3.973,1.082,1.082,0,0,1-1.452.4h0" transform="translate(-518.711 -150.648)" fill="#93f9a2"/>
                      </g>
                    </g>
                  </g>
                </g>
              </g>
            </g>
          </g>
          <g id="Сгруппировать_8537" transform="translate(155.444 46.462)" opacity="0.3">
            <g id="Сгруппировать_8536">
              <g id="Сгруппировать_8517-2" data-name="Сгруппировать 8517">
                <g id="Сгруппировать_8535" clip-path="url(#clip-path-18)">
                  <g id="Сгруппировать_8534" transform="translate(0 0.024)">
                    <g id="Сгруппировать_8516-2" data-name="Сгруппировать 8516">
                      <g id="Сгруппировать_8533" clip-path="url(#clip-path-19)">
                        <path id="Контур_18485" d="M589.172,216.786a46.626,46.626,0,0,1-3.8,4.045,1.057,1.057,0,0,1-1.452-1.536,43.975,43.975,0,0,0,3.625-3.853,1.064,1.064,0,0,1,1.5-.12,1.053,1.053,0,0,1,.132,1.464h0M591,212.621a1.051,1.051,0,0,1-.312-1.464h0a43.612,43.612,0,0,0,2.6-4.609,1.06,1.06,0,1,1,1.908.924h0a46.76,46.76,0,0,1-2.737,4.837c-.024.036-.048.06-.072.1a1.043,1.043,0,0,1-1.392.216m-9.9,11.762a45.381,45.381,0,0,1-4.669,3,1.047,1.047,0,0,1-1.428-.456,1.068,1.068,0,0,1,.4-1.4,44.612,44.612,0,0,0,4.453-2.869,1.055,1.055,0,0,1,1.476.228,1.082,1.082,0,0,1-.228,1.5M595.978,203a1.059,1.059,0,0,1-.66-1.344,44,44,0,0,0,1.416-5.1,1.059,1.059,0,0,1,1.26-.816,1.072,1.072,0,0,1,.828,1.212.072.072,0,0,1-.012.048,43.679,43.679,0,0,1-1.488,5.353,1.063,1.063,0,0,1-1.344.648m-24.545,26.8a45.242,45.242,0,0,1-5.257,1.8,1.055,1.055,0,0,1-1.248-.828,1.068,1.068,0,0,1,.684-1.212,44.149,44.149,0,0,0,5.017-1.716,1.054,1.054,0,0,1,1.368.6,1.034,1.034,0,0,1-.564,1.356m-10.682,2.965a45.09,45.09,0,0,1-5.533.48,1.057,1.057,0,0,1-.048-2.112,43.369,43.369,0,0,0,5.281-.468,1.062,1.062,0,0,1,1.176.924,1.09,1.09,0,0,1-.876,1.176m-11.078.288a44.176,44.176,0,0,1-5.485-.852,1.052,1.052,0,0,1-.792-1.272,1.07,1.07,0,0,1,1.248-.8,45.179,45.179,0,0,0,5.233.816,1.058,1.058,0,0,1,.936,1.176,1.071,1.071,0,0,1-1.14.936" transform="translate(-543.335 -187.644)" fill="#93f9a2"/>
                        <path id="Контур_18486-2" data-name="Контур_18486" d="M590.363,193.365a1.015,1.015,0,0,0,.228-.576c.084-.9.132-1.812.156-2.713a1.058,1.058,0,1,0-2.112-.12v.06c-.024.852-.072,1.716-.144,2.581a1.071,1.071,0,0,0,.972,1.152,1.031,1.031,0,0,0,.9-.384" transform="translate(-534.299 -188.996)" fill="#93f9a2"/>
                      </g>
                    </g>
                  </g>
                </g>
              </g>
            </g>
          </g>
          <path id="Контур_18487-2" data-name="Контур_18487" d="M590.636,183.567a.522.522,0,0,0-.456-.42l-6.481-.828a28.544,28.544,0,0,0-5.185-7.622l1.608-6.337a.525.525,0,0,0-.228-.576l-6.553-4.3a.523.523,0,0,0-.624.024l-5.161,4a28.463,28.463,0,0,0-9.062-1.716l-3.349-5.617a.55.55,0,0,0-.576-.252l-7.682,1.6a.522.522,0,0,0-.42.456l-.828,6.481a28.542,28.542,0,0,0-7.622,5.185l-6.337-1.608a.525.525,0,0,0-.576.228l-4.3,6.553a.522.522,0,0,0,.024.624l4,5.161a28.463,28.463,0,0,0-1.716,9.062l-5.617,3.361a.55.55,0,0,0-.252.576l1.6,7.682a.522.522,0,0,0,.456.42l6.481.828a28.8,28.8,0,0,0,5.185,7.634l-1.608,6.337a.525.525,0,0,0,.228.576l6.553,4.3a.523.523,0,0,0,.624-.024l5.161-4a28.528,28.528,0,0,0,9.062,1.716l3.349,5.617a.55.55,0,0,0,.576.252l7.682-1.6a.522.522,0,0,0,.42-.456l.828-6.481a28.8,28.8,0,0,0,7.634-5.185l6.337,1.608a.525.525,0,0,0,.576-.228l4.3-6.553a.523.523,0,0,0-.024-.624l-4-5.161a28.622,28.622,0,0,0,1.728-9.086L592,191.825a.55.55,0,0,0,.252-.576Z" transform="translate(-391.923 -148.327)" fill="#93f9a2"/>
          <path id="Контур_18488-2" data-name="Контур_18488" d="M558.734,195.9a7.974,7.974,0,1,1,.816-.864,8,8,0,0,1-.816.864m-9.782-1.92a5.9,5.9,0,1,0,.348-8.342,4.934,4.934,0,0,0-.588.636,5.918,5.918,0,0,0,.24,7.706" transform="translate(-387.495 -143.902)" fill="#bdf9c0"/>
          <path id="Контур_18489-2" data-name="Контур_18489" d="M570.685,204.607a18.678,18.678,0,0,0,1.2-1.644,19.836,19.836,0,0,0,1.872-3.613l.06-.168a1.06,1.06,0,0,0-1.98-.756,18.035,18.035,0,0,1-1.74,3.385l-.12.168a17.615,17.615,0,0,1-6.505,5.845,17.906,17.906,0,0,1-4.525,1.632l-.036.012-.12.024a17.758,17.758,0,0,1-13.419-2.545c-.516-.336-1.008-.7-1.488-1.08a17.86,17.86,0,1,1,27.342-21.653,1.061,1.061,0,0,0,1.932-.876h0l-.024-.048a19.973,19.973,0,1,0-2.448,21.316" transform="translate(-389.532 -145.903)" fill="#bdf9c0"/>
        </g>
      </g>
    </g>
    <g id="Сгруппировать_8541" transform="translate(486.355 709.962)">
      <g id="Сгруппировать_8519-2" data-name="Сгруппировать 8519" transform="translate(0 0)">
        <g id="Сгруппировать_8540" clip-path="url(#clip-path-20)">
          <path id="Прямоугольник_903" d="M466.26,629.81l27.522-29.37L523.836,628.6,496.3,657.968Z" transform="translate(-475.854 -619.812)" fill="url(#linear-gradient-7)"/>
        </g>
      </g>
    </g>
    <g id="Сгруппировать_8543" transform="translate(487.299 705.053)">
      <g id="Сгруппировать_8520-2" data-name="Сгруппировать 8520">
        <g id="Сгруппировать_8542" clip-path="url(#clip-path-21)">
          <rect id="Прямоугольник_904" width="11.378" height="9.758" transform="matrix(0.009, -1, 1, 0.009, -0.083, 11.255)" fill="#f0b179"/>
        </g>
      </g>
    </g>
    <g id="Сгруппировать_8545" transform="translate(465.524 561.708)">
      <g id="Сгруппировать_8521-2" data-name="Сгруппировать 8521">
        <g id="Сгруппировать_8544" clip-path="url(#clip-path-22)">
          <path id="Прямоугольник_905" d="M389.49,586.145,481,464.5,581.374,540,489.867,661.653Z" transform="translate(-470.396 -498.779)" fill="url(#linear-gradient-8)"/>
        </g>
      </g>
    </g>
    <g id="Сгруппировать_8547" transform="translate(450.066 712.975)">
      <g id="Сгруппировать_8522-2" data-name="Сгруппировать 8522">
        <g id="Сгруппировать_8546" clip-path="url(#clip-path-23)">
          <path id="Прямоугольник_906" d="M437.27,628.777l15.255-16.287,16.287,15.267-15.255,16.287Z" transform="translate(-445.371 -620.412)" fill="url(#linear-gradient-9)"/>
        </g>
      </g>
    </g>
    <g id="Сгруппировать_8549" transform="translate(452.3 702.701)">
      <g id="Сгруппировать_8523-2" data-name="Сгруппировать 8523">
        <g id="Сгруппировать_8548" clip-path="url(#clip-path-24)">
          <rect id="Прямоугольник_907" width="13.671" height="8.402" transform="translate(-0.097 13.568) rotate(-89.484)" fill="#f0b179"/>
        </g>
      </g>
    </g>
    <g id="Сгруппировать_8551" transform="translate(444.103 559.511)">
      <g id="Сгруппировать_8524-2" data-name="Сгруппировать 8524">
        <g id="Сгруппировать_8550" clip-path="url(#clip-path-25)">
          <path id="Прямоугольник_908" d="M374.64,591.115,465.223,470.67l104.854,78.868L479.482,669.984Z" transform="translate(-451.949 -495.347)" fill="url(#linear-gradient-10)"/>
        </g>
      </g>
    </g>
    <g id="Сгруппировать_8553" transform="translate(445.05 463.155)">
      <g id="Сгруппировать_8525-2" data-name="Сгруппировать 8525">
        <g id="Сгруппировать_8552" clip-path="url(#clip-path-26)">
          <path id="Прямоугольник_909" d="M392.17,491.033,480.628,371.5l117.4,86.874L509.567,577.907Z" transform="translate(-449.385 -418.85)" fill="url(#linear-gradient)"/>
        </g>
      </g>
    </g>
    <g id="Сгруппировать_8555" transform="translate(529.608 428.036)">
      <g id="Сгруппировать_8526-2" data-name="Сгруппировать 8526" transform="translate(0)">
        <g id="Сгруппировать_8554" clip-path="url(#clip-path-27)">
          <rect id="Прямоугольник_910" width="58.452" height="50.519" transform="matrix(0.009, -1, 1, 0.009, -0.529, 57.945)" fill="#f0b179"/>
        </g>
      </g>
    </g>
    <g id="Сгруппировать_8557" transform="translate(573.945 403.443)">
      <g id="Сгруппировать_8527-2" data-name="Сгруппировать 8527">
        <g id="Сгруппировать_8556" clip-path="url(#clip-path-28)">
          <rect id="Прямоугольник_911" width="34.063" height="28.158" transform="translate(-11.538 24.479) rotate(-65.726)" fill="#f0b179"/>
        </g>
      </g>
    </g>
    <g id="Сгруппировать_8559" transform="translate(577.09 415.205)">
      <g id="Сгруппировать_8528-2" data-name="Сгруппировать 8528" transform="translate(0)">
        <g id="Сгруппировать_8558" clip-path="url(#clip-path-29)">
          <rect id="Прямоугольник_912" width="14.103" height="12.807" transform="translate(-5.542 8.349) rotate(-56.42)" fill="#f0b179"/>
        </g>
      </g>
    </g>
    <g id="Сгруппировать_8561" transform="translate(421.057 473.321)">
      <g id="Сгруппировать_8529-2" data-name="Сгруппировать 8529">
        <g id="Сгруппировать_8560" clip-path="url(#clip-path-30)">
          <path id="Прямоугольник_913" d="M402.93,449.9l33.727-45.561,44.781,33.139L447.723,483.04Z" transform="translate(-423.238 -422.44)" fill="url(#linear-gradient)"/>
        </g>
      </g>
    </g>
    <g id="Сгруппировать_8563" transform="translate(420.445 510.013)">
      <g id="Сгруппировать_8530-2" data-name="Сгруппировать 8530">
        <g id="Сгруппировать_8562" clip-path="url(#clip-path-31)">
          <rect id="Прямоугольник_914" width="49.402" height="63.961" transform="translate(-1.2 48.806) rotate(-89.484)" fill="#f0b179"/>
        </g>
      </g>
    </g>
    <g id="Сгруппировать_8565" transform="translate(469.148 446.016)">
      <g id="Сгруппировать_8531-2" data-name="Сгруппировать 8531">
        <g id="Сгруппировать_8564" clip-path="url(#clip-path-32)">
          <rect id="Прямоугольник_915" width="37.712" height="35.851" transform="translate(-12.063 23.263) rotate(-62.743)" fill="#f0b179"/>
        </g>
      </g>
    </g>
    <g id="Сгруппировать_8567" transform="translate(474.577 424.315)">
      <g id="Сгруппировать_8532-2" data-name="Сгруппировать 8532">
        <g id="Сгруппировать_8566" clip-path="url(#clip-path-33)">
          <rect id="Прямоугольник_916" width="41.721" height="41.481" transform="matrix(0.529, -0.849, 0.849, 0.529, -13.764, 22.025)" fill="#f0b179"/>
        </g>
      </g>
    </g>
    <g id="Сгруппировать_8569" transform="translate(413.832 150.262)">
      <g id="Сгруппировать_8533-2" data-name="Сгруппировать 8533">
        <g id="Сгруппировать_8568" clip-path="url(#clip-path-2)">
          <path id="Контур_18504-2" data-name="Контур_18504" d="M481.643,371.866a.7.7,0,0,1-.972.132.688.688,0,0,1-.132-.132c-1.188-1.572-4.309-4.849-8.714-2.917-4.117,1.8-4.609,4.8-4.561,6.313a.687.687,0,0,1-.66.72h-.012a.687.687,0,0,1-.156-.012c-2.064-.42-7.045-.8-9.41,4.285-1.956,4.189-.732,6.577.384,7.754a.694.694,0,0,1-.3,1.152c-1.368.408-3.133,1.548-2.989,4.741.2,4.417,5.137,4.069,6.541,3.889a.668.668,0,0,1,.612.228c1.188,1.344,6.565,7.058,12.435,7.79a.711.711,0,0,0,.78-.624.647.647,0,0,0-.036-.3l-2.473-7.43a.69.69,0,0,1,.384-.864l1.26-.54a.7.7,0,0,0,.372-.912h0a.262.262,0,0,0-.06-.1,18.6,18.6,0,0,1-2.449-5.317s-1.6-1.044,4.129-2.365,14.271-3.361,16.107-8.21c1.308-3.457-.732-10.79-4.825-10.79-1.476-.012-3.265.984-5.257,3.5" transform="translate(-405.763 -106.586)"/>
        </g>
      </g>
    </g>
    <g id="Сгруппировать_8571" transform="translate(462.182 412.044)">
      <g id="Сгруппировать_8534-2" data-name="Сгруппировать 8534">
        <g id="Сгруппировать_8570" clip-path="url(#clip-path-35)">
          <rect id="Прямоугольник_918" width="54.755" height="54.791" transform="matrix(0.627, -0.779, 0.779, 0.627, -19.154, 22.197)"/>
        </g>
      </g>
    </g>
    <g id="Сгруппировать_8573" transform="translate(475.832 438.538)">
      <g id="Сгруппировать_8535-2" data-name="Сгруппировать 8535">
        <g id="Сгруппировать_8572" clip-path="url(#clip-path-36)">
          <rect id="Прямоугольник_919" width="10.742" height="11.522" transform="matrix(0.529, -0.849, 0.849, 0.529, -3.585, 4.965)" fill="#f0b179"/>
        </g>
      </g>
    </g>
    <g id="Сгруппировать_8575" transform="translate(474.098 489.741)">
      <g id="Сгруппировать_8536-2" data-name="Сгруппировать 8536">
        <g id="Сгруппировать_8574" clip-path="url(#clip-path-37)">
          <path id="Прямоугольник_920" d="M452.92,438.83l77.392-18.58,16.875,70.275-77.4,18.568Z" transform="translate(-466.268 -435.673)" fill="url(#linear-gradient-13)"/>
        </g>
      </g>
    </g>
    <g id="Сгруппировать_8577" transform="translate(476.283 515.51)">
      <g id="Сгруппировать_8537-2" data-name="Сгруппировать 8537">
        <path id="Контур_18485-2" data-name="Контур 18485" d="M466.064,460.691h0c-.84,3,1.212,11.438,1.212,11.438a7.787,7.787,0,0,0,7.033-2.449c1.608-1.584,2.569-3.169,3.877-2.316a2.743,2.743,0,0,0,3.817-.624h0a2.55,2.55,0,0,0,.192-.3l-2.34-2.593c3.433,1.668,3.793-1.452,3.793-1.452l-2.521-1.956c3.889,1.2,4.345-2.3,4.381-2.617V457.8a78.334,78.334,0,0,0-11.654-3.109,9.714,9.714,0,0,0-1.44-.12c-4.213,0-5.605,3.409-6.349,6.121" transform="translate(-465.862 -454.57)" fill="#f0b179"/>
        <g id="Сгруппировать_8576" clip-path="url(#clip-path-38)">
          <rect id="Прямоугольник_921" width="20.272" height="17.98" transform="translate(-0.638 0)" fill="#f0b179"/>
        </g>
      </g>
    </g>
    <g id="Сгруппировать_8579" transform="translate(413.832 150.262)">
      <g id="Сгруппировать_8538-2" data-name="Сгруппировать 8538">
        <g id="Сгруппировать_8578" clip-path="url(#clip-path-2)">
          <path id="Контур_18509-2" data-name="Контур_18509" d="M492.72,447.673a4.333,4.333,0,1,0,4.333-4.333,4.331,4.331,0,0,0-4.333,4.333h0" transform="translate(-398.032 -91.571)" fill="#93f9a2"/>
          <path id="Контур_18510-2" data-name="Контур_18510" d="M477.932,452.027l3-10.178a3.5,3.5,0,0,1,2.629-2.449c9.41-1.968,35.167-2.376,35.419-2.388l-.012-1.152c-1.068.012-26.117.42-35.635,2.413a4.649,4.649,0,0,0-3.493,3.253l-3,10.178Z" transform="translate(-401.212 -93.069)" fill="#bdf9c0"/>
        </g>
      </g>
    </g>
    <g id="Сгруппировать_8581" transform="translate(872.227 432.116)">
      <g id="Сгруппировать_8539-2" data-name="Сгруппировать 8539" transform="translate(0)">
        <g id="Сгруппировать_8580" clip-path="url(#clip-path-40)">
          <rect id="Прямоугольник_923" width="90.367" height="93.463" transform="translate(-36.549 20.025) rotate(-31.964)" fill="#f0b179"/>
        </g>
      </g>
    </g>
    <g id="Сгруппировать_8583" transform="translate(925.513 401.582)">
      <g id="Сгруппировать_8540-2" data-name="Сгруппировать 8540" transform="translate(0)">
        <g id="Сгруппировать_8582" clip-path="url(#clip-path-41)">
          <rect id="Прямоугольник_924" width="108.491" height="111.167" transform="translate(-45.869 25.057) rotate(-33.692)"/>
        </g>
      </g>
    </g>
    <g id="Сгруппировать_8585" transform="translate(914.681 456.914)">
      <g id="Сгруппировать_8541-2" data-name="Сгруппировать 8541">
        <g id="Сгруппировать_8584" clip-path="url(#clip-path-42)">
          <path id="Прямоугольник_925" d="M793.48,472.818l55.98-86.6,77.1,49.834-55.992,86.6Z" transform="translate(-838.654 -409.661)" fill="url(#linear-gradient-14)"/>
        </g>
      </g>
    </g>
    <g id="Сгруппировать_8587" transform="translate(934.248 435.225)">
      <g id="Сгруппировать_8542-2" data-name="Сгруппировать 8542" transform="translate(0)">
        <g id="Сгруппировать_8586" clip-path="url(#clip-path-43)">
          <rect id="Прямоугольник_926" width="30.81" height="24.761" transform="matrix(0.411, -0.912, 0.912, 0.411, -10.09, 22.496)" fill="#f0b179"/>
        </g>
      </g>
    </g>
    <g id="Сгруппировать_8589" transform="translate(924.317 411.196)">
      <g id="Сгруппировать_8543-2" data-name="Сгруппировать 8543">
        <g id="Сгруппировать_8588" clip-path="url(#clip-path-44)">
          <rect id="Прямоугольник_927" width="46.606" height="47.242" transform="translate(-20.354 6.328) rotate(-24.792)" fill="#f0b179"/>
        </g>
      </g>
    </g>
    <g id="Сгруппировать_8591" transform="translate(932.886 405.579)">
      <g id="Сгруппировать_8544-2" data-name="Сгруппировать 8544" transform="translate(0)">
        <g id="Сгруппировать_8590" clip-path="url(#clip-path-45)">
          <rect id="Прямоугольник_928" width="35.251" height="35.383" transform="translate(-12.88 7.932) rotate(-33.692)"/>
        </g>
      </g>
    </g>
    <g id="Сгруппировать_8593" transform="translate(945.519 425.239)">
      <g id="Сгруппировать_8545-2" data-name="Сгруппировать 8545" transform="translate(0)">
        <g id="Сгруппировать_8592" clip-path="url(#clip-path-46)">
          <rect id="Прямоугольник_929" width="14.463" height="13.791" transform="translate(-3.847 1.759) rotate(-24.792)" fill="#f0b179"/>
        </g>
      </g>
    </g>
    <g id="Сгруппировать_8595" transform="translate(910.639 592.11)">
      <g id="Сгруппировать_8546-2" data-name="Сгруппировать 8546" transform="translate(0 0)">
        <path id="Контур_18494" data-name="Контур 18494" d="M827.966,534.617h0a8.536,8.536,0,0,0,.912,6.157l40.748,68.594a9.323,9.323,0,0,1,1.068,2.665c.744,3.217,2.292,11.114,1.488,18.28l-2.112,4.381,9.122-2.076,1.98-24.485-2.581-1.572a12.2,12.2,0,0,1-4.957-5.809c-3.685-8.954-12.843-31.747-15.2-42.849-2.677-12.627-16.7-22.877-16.7-22.877l2.461-5.821L831.243,518.39c.06,1.248-2.1,11.018-3.277,16.227" transform="translate(-827.75 -518.39)" fill="#e09d6c"/>
        <g id="Сгруппировать_8594" clip-path="url(#clip-path-47)">
          <rect id="Прямоугольник_930" width="103.39" height="127.815" transform="translate(-49.587 27.301) rotate(-29)" fill="#e09d6c"/>
        </g>
      </g>
    </g>
    <g id="Сгруппировать_8597" transform="translate(950.245 679.968)">
      <g id="Сгруппировать_8547-2" data-name="Сгруппировать 8547" transform="translate(0 0)">
        <g id="Сгруппировать_8596" clip-path="url(#clip-path-48)">
          <path id="Прямоугольник_931" d="M860.36,622.719l.3-31.279,22.445.216-.288,31.279Z" transform="translate(-860.826 -591.62)" fill="url(#linear-gradient-15)"/>
        </g>
      </g>
    </g>
    <g id="Сгруппировать_8599" transform="translate(930.011 601.4)">
      <g id="Сгруппировать_8548-2" data-name="Сгруппировать 8548" transform="translate(0 0)">
        <g id="Сгруппировать_8598" clip-path="url(#clip-path-49)">
          <rect id="Прямоугольник_932" width="112.187" height="62.197" transform="translate(-32.289 97.632) rotate(-71.712)" fill="#f0b179"/>
        </g>
      </g>
    </g>
    <g id="Сгруппировать_8601" transform="translate(925.746 686.125)">
      <g id="Сгруппировать_8549-2" data-name="Сгруппировать 8549" transform="translate(0)">
        <g id="Сгруппировать_8600" clip-path="url(#clip-path-50)">
          <path id="Прямоугольник_933" d="M839.94,623.182l.24-26.682,29.154.264-.24,26.682Z" transform="translate(-840.416 -596.764)" fill="url(#linear-gradient-16)"/>
        </g>
      </g>
    </g>
    <g id="Сгруппировать_8603" transform="translate(909.953 524.536)">
      <g id="Сгруппировать_8550-2" data-name="Сгруппировать 8550" transform="translate(0)">
        <g id="Сгруппировать_8602" clip-path="url(#clip-path-51)">
          <path id="Прямоугольник_934" d="M790.94,500.572l85.014-65.1,67.754,88.482-85.014,65.1Z" transform="translate(-834.435 -467.421)" fill="url(#linear-gradient-17)"/>
        </g>
      </g>
    </g>
    <g id="Сгруппировать_8605" transform="translate(944.046 466.048)">
      <g id="Сгруппировать_8551-2" data-name="Сгруппировать 8551" transform="translate(0)">
        <path id="Контур_18500" data-name="Контур 18500" d="M865.158,428.351h0a10.1,10.1,0,0,0,2.965,4.033c22.457,18.688,17.019,31.014,8.21,35-9.038,4.093-6.073-.96-12.459-.984-2.953-.012-5.605,2.28-7.081,4.573-1.716,2.677-1.824,5.353,1.116,4.357,5.461-1.836,10.058,3.3,10.058,3.3s33.871-2.388,28.95-24.893-24.725-38.96-24.725-38.96a8.892,8.892,0,0,0-4.381-1.416c-4.657,0-6.085,6.313-2.652,14.991" transform="translate(-855.583 -413.36)" fill="#f0b179"/>
        <g id="Сгруппировать_8604" clip-path="url(#clip-path-52)">
          <rect id="Прямоугольник_935" width="75.34" height="80.309" transform="translate(-30.88 20.382) rotate(-33.994)" fill="#f0b179"/>
        </g>
      </g>
    </g>
    <g id="Сгруппировать_8607" transform="translate(413.832 150.262)">
      <g id="Сгруппировать_8552-2" data-name="Сгруппировать 8552">
        <g id="Сгруппировать_8606" clip-path="url(#clip-path-2)">
          <rect id="Прямоугольник_936" width="7.069" height="76.432" transform="translate(415.767 485.309)" fill="#87f27e"/>
          <path id="Контур_18524" d="M799.287,620.279h-61.9v-4.093a.526.526,0,0,1,.5-.516h60.877a.512.512,0,0,1,.516.516h0Z" transform="translate(-349.037 -57.062)" fill="#87f27e"/>
          <path id="Контур_18525" d="M741.536,539.44h59.256a11.726,11.726,0,1,1,0,23.453H741.536a11.726,11.726,0,0,1,0-23.453" transform="translate(-350.555 -72.327)" fill="#87f27e"/>
        </g>
      </g>
    </g>
    <g id="Сгруппировать_8609" transform="translate(748.888 686.99)">
      <g id="Сгруппировать_8553-2" data-name="Сгруппировать 8553" transform="translate(0 0)">
        <g id="Сгруппировать_8608" clip-path="url(#clip-path-54)">
          <path id="Прямоугольник_938" d="M685.75,618.374l11.858-30.354L734,602.231l-11.846,30.354Z" transform="translate(-694.434 -599.326)" fill="url(#linear-gradient-18)"/>
        </g>
      </g>
    </g>
    <g id="Сгруппировать_8611" transform="translate(748.888 686.99)">
      <g id="Сгруппировать_8554-2" data-name="Сгруппировать 8554" transform="translate(0 0)">
        <g id="Сгруппировать_8610" clip-path="url(#clip-path-54)">
          <path id="Прямоугольник_939" d="M685.75,618.374l11.858-30.354L734,602.231l-11.846,30.354Z" transform="translate(-694.434 -599.326)" fill="url(#linear-gradient-19)"/>
        </g>
      </g>
    </g>
    <g id="Сгруппировать_8613" transform="translate(766.249 677.568)">
      <g id="Сгруппировать_8555-2" data-name="Сгруппировать 8555">
        <g id="Сгруппировать_8612" clip-path="url(#clip-path-56)">
          <rect id="Прямоугольник_940" width="16.095" height="13.947" transform="translate(-2.914 13.328) rotate(-77.52)" fill="#f0b179"/>
        </g>
      </g>
    </g>
    <g id="Сгруппировать_8615" transform="translate(754.039 600.536)">
      <g id="Сгруппировать_8556-2" data-name="Сгруппировать 8556" transform="translate(0 0)">
        <g id="Сгруппировать_8614" clip-path="url(#clip-path-57)">
          <path id="Прямоугольник_941" d="M662.7,543.3,766.99,498.97l43.1,101.409L705.8,644.7Z" transform="translate(-704.2 -530.705)" fill="url(#linear-gradient-20)"/>
        </g>
      </g>
    </g>
    <g id="Сгруппировать_8617" transform="translate(745.077 697.564)">
      <g id="Сгруппировать_8557-2" data-name="Сгруппировать 8557" transform="translate(0 0)">
        <g id="Сгруппировать_8616" clip-path="url(#clip-path-58)">
          <path id="Прямоугольник_942" d="M684.51,611.453l35.155-16.323,12.579,27.09-35.167,16.311Z" transform="translate(-690.871 -608.477)" fill="url(#linear-gradient-21)"/>
        </g>
      </g>
    </g>
    <g id="Сгруппировать_8619" transform="translate(743.044 705.173)">
      <g id="Сгруппировать_8558-2" data-name="Сгруппировать 8558" transform="translate(0)">
        <g id="Сгруппировать_8618" clip-path="url(#clip-path-59)">
          <path id="Прямоугольник_943" d="M685.4,624.456l4.045-18.316,37.34,8.258-4.057,18.328Z" transform="translate(-688.66 -613.882)" fill="url(#linear-gradient-22)"/>
        </g>
      </g>
    </g>
    <g id="Сгруппировать_8621" transform="translate(771.929 690.254)">
      <g id="Сгруппировать_8559-2" data-name="Сгруппировать 8559" transform="translate(0)">
        <g id="Сгруппировать_8620" clip-path="url(#clip-path-60)">
          <rect id="Прямоугольник_944" width="15.987" height="15.879" transform="translate(-3.165 12.793) rotate(-77.52)" fill="#f0b179"/>
        </g>
      </g>
    </g>
    <g id="Сгруппировать_8623" transform="translate(773.667 597.127)">
      <g id="Сгруппировать_8560-2" data-name="Сгруппировать 8560" transform="translate(0 0)">
        <g id="Сгруппировать_8622" clip-path="url(#clip-path-61)">
          <path id="Прямоугольник_945" d="M698.11,623.256,720.159,507.6l112.848,21.521L810.958,644.765Z" transform="translate(-716.738 -525.568)" fill="url(#linear-gradient-23)"/>
        </g>
      </g>
    </g>
    <g id="Сгруппировать_8625" transform="translate(766.201 529.001)">
      <g id="Сгруппировать_8561-2" data-name="Сгруппировать 8561">
        <g id="Сгруппировать_8624" clip-path="url(#clip-path-62)">
          <path id="Прямоугольник_946" d="M685.74,489.827l55.608-43.137,43.821,56.5-55.608,43.137Z" transform="translate(-711.75 -469.639)" fill="url(#linear-gradient-24)"/>
        </g>
      </g>
    </g>
    <g id="Сгруппировать_8627" transform="translate(728.418 553.174)">
      <g id="Сгруппировать_8562-2" data-name="Сгруппировать 8562" transform="translate(0)">
        <g id="Сгруппировать_8626" clip-path="url(#clip-path-63)">
          <rect id="Прямоугольник_947" width="35.239" height="46.054" transform="translate(-5.666 25.697) rotate(-77.52)" fill="#f0b179"/>
        </g>
      </g>
    </g>
    <g id="Сгруппировать_8629" transform="translate(790.413 508.032)">
      <g id="Сгруппировать_8563-2" data-name="Сгруппировать 8563">
        <g id="Сгруппировать_8628" clip-path="url(#clip-path-64)">
          <path id="Прямоугольник_948" d="M687.7,483.366,797.559,415.6l70.395,114.108L758.107,597.486Z" transform="translate(-735.569 -454.896)" fill="url(#linear-gradient-25)"/>
        </g>
      </g>
    </g>
    <g id="Сгруппировать_8631" transform="translate(804.573 494.374)">
      <g id="Сгруппировать_8564-2" data-name="Сгруппировать 8564" transform="translate(0)">
        <g id="Сгруппировать_8630" clip-path="url(#clip-path-65)">
          <rect id="Прямоугольник_949" width="31.255" height="29.598" transform="translate(-5.606 25.328) rotate(-77.52)" fill="#f0b179"/>
        </g>
      </g>
    </g>
    <g id="Сгруппировать_8633" transform="translate(853.219 511.789)">
      <g id="Сгруппировать_8565-2" data-name="Сгруппировать 8565" transform="translate(0)">
        <g id="Сгруппировать_8632" clip-path="url(#clip-path-66)">
          <path id="Прямоугольник_950" d="M753.69,475.081,825.8,430.6l46.93,76.06-72.123,44.481Z" transform="translate(-785.161 -455.649)" fill="url(#linear-gradient-26)"/>
        </g>
      </g>
    </g>
    <g id="Сгруппировать_8635" transform="translate(820.957 565.836)">
      <g id="Сгруппировать_8566-2" data-name="Сгруппировать 8566" transform="translate(0)">
        <g id="Сгруппировать_8634" clip-path="url(#clip-path-67)">
          <rect id="Прямоугольник_951" width="74.391" height="63.829" transform="matrix(0.814, -0.581, 0.581, 0.814, -12.66, 9.016)" fill="#f0b179"/>
        </g>
      </g>
    </g>
    <g id="Сгруппировать_8637" transform="translate(793.492 468.412)">
      <g id="Сгруппировать_8567-2" data-name="Сгруппировать 8567">
        <g id="Сгруппировать_8636" clip-path="url(#clip-path-68)">
          <rect id="Прямоугольник_952" width="46.09" height="43.125" transform="translate(-8.829 37.834) rotate(-77.965)" fill="#f0b179"/>
        </g>
      </g>
    </g>
    <g id="Сгруппировать_8639" transform="translate(804.797 457.442)">
      <g id="Сгруппировать_8568-2" data-name="Сгруппировать 8568" transform="translate(0)">
        <g id="Сгруппировать_8638" clip-path="url(#clip-path-69)">
          <rect id="Прямоугольник_953" width="51.287" height="51.755" transform="translate(-20.629 16.649) rotate(-40.86)"/>
        </g>
      </g>
    </g>
    <g id="Сгруппировать_8641" transform="translate(817.536 491.613)">
      <g id="Сгруппировать_8569-2" data-name="Сгруппировать 8569" transform="translate(0)">
        <g id="Сгруппировать_8640" clip-path="url(#clip-path-70)">
          <rect id="Прямоугольник_954" width="14.283" height="14.487" transform="matrix(0.085, -0.996, 0.996, 0.085, -1.132, 13.121)" fill="#f0b179"/>
        </g>
      </g>
    </g>
    <g id="Сгруппировать_8643" transform="translate(737.371 580.372)">
      <g id="Сгруппировать_8570-2" data-name="Сгруппировать 8570" transform="translate(0 0)">
        <g id="Сгруппировать_8642" clip-path="url(#clip-path-71)">
          <path id="Прямоугольник_955" d="M681.91,512.737l66.494-21.8,8.714,26.6-66.482,21.809Z" transform="translate(-683.686 -512.148)" fill="url(#linear-gradient-27)"/>
        </g>
      </g>
    </g>
    <g id="Сгруппировать_8645" transform="translate(676.891 526.696)">
      <g id="Сгруппировать_8571-2" data-name="Сгруппировать 8571" transform="translate(0)">
        <g id="Сгруппировать_8644" clip-path="url(#clip-path-72)">
          <path id="Прямоугольник_956" d="M608.21,503.14l74.019-78.22,79.2,74.944L687.4,578.084Z" transform="translate(-637.964 -471.694)" fill="url(#linear-gradient-28)"/>
        </g>
      </g>
    </g>
    <g id="Сгруппировать_8647" transform="translate(413.832 150.262)">
      <g id="Сгруппировать_8572-2" data-name="Сгруппировать 8572">
        <g id="Сгруппировать_8646" clip-path="url(#clip-path-2)">
          <path id="Контур_18545" d="M670.208,487.715c1.188,3.685.312,7.262-1.956,7.994s-5.065-1.668-6.253-5.353-.312-7.262,1.956-7.994,5.065,1.668,6.253,5.353" transform="translate(-364.24 -83.783)" fill="#93f9a2"/>
          <path id="Контур_18546" d="M644.49,653.581a2.859,2.859,0,0,1-1.092-.216,2.641,2.641,0,0,1-1.476-3.433h0a.592.592,0,0,0,.036-.084l57.888-130.287a2.8,2.8,0,0,1,3.625-1.4,2.641,2.641,0,0,1,1.476,3.433h0a.594.594,0,0,0-.036.084L647.023,651.961a2.763,2.763,0,0,1-2.533,1.62" transform="translate(-368.193 -76.633)" fill="#93f9a2"/>
          <path id="Контур_18547" d="M708.478,653.581a2.738,2.738,0,0,1-2.532-1.62L648.057,521.674a2.645,2.645,0,0,1,1.356-3.481h0l.084-.036a2.8,2.8,0,0,1,3.625,1.4L711.01,649.836a2.645,2.645,0,0,1-1.356,3.481h0l-.084.036a2.663,2.663,0,0,1-1.092.228" transform="translate(-366.971 -76.633)" fill="#93f9a2"/>
          <path id="Контур_18548" d="M793.78,653.579a2.858,2.858,0,0,1-1.092-.216,2.641,2.641,0,0,1-1.476-3.433h0l.036-.084,57.888-130.275a2.8,2.8,0,0,1,3.625-1.4,2.641,2.641,0,0,1,1.476,3.433h0a.573.573,0,0,0-.036.084L796.313,651.959a2.738,2.738,0,0,1-2.532,1.62" transform="translate(-338.297 -76.631)" fill="#93f9a2"/>
          <path id="Контур_18549" d="M857.768,653.581a2.738,2.738,0,0,1-2.532-1.62L797.347,521.674a2.645,2.645,0,0,1,1.356-3.481h0l.084-.036a2.8,2.8,0,0,1,3.625,1.4L860.3,649.836a2.645,2.645,0,0,1-1.356,3.481h0l-.084.036a2.662,2.662,0,0,1-1.092.228" transform="translate(-337.076 -76.633)" fill="#93f9a2"/>
          <path id="Контур_18550" d="M898.173,516.529a3.2,3.2,0,0,0-.552-2.412,2.513,2.513,0,0,0-2-1.056H632.269a2.935,2.935,0,0,0-2.52,1.548,3.7,3.7,0,0,0-.192,3.217l2.857,6.913a3.969,3.969,0,0,0,3.625,2.593H893.816a3.124,3.124,0,0,0,2.965-2.749Z" transform="translate(-370.687 -77.609)" fill="#93f9a2"/>
        </g>
      </g>
    </g>
  </g>
</svg>
